<?xml version="1.0" encoding="UTF-8"?>
<svg version="1.1" xmlns="http://www.w3.org/2000/svg" width="500" height="500">
<path d="M0 0 C4.45964868 3.18546334 8.63420171 6.64230541 10.625 11.875 C11.98053483 24.95748727 11.98053483 24.95748727 8.5 29.4375 C7.88125 30.241875 7.2625 31.04625 6.625 31.875 C7.76551372 36.06638791 10.14560576 39.14131545 12.75 42.5625 C16.625 47.65791815 16.625 47.65791815 16.625 49.875 C17.285 49.875 17.945 49.875 18.625 49.875 C22.625 55.28676471 22.625 55.28676471 22.625 57.875 C23.23085937 57.76800781 23.83671875 57.66101563 24.4609375 57.55078125 C31.03811231 56.60973932 36.6368165 56.75552752 42.625 59.875 C47.36225755 63.92925184 51.0920939 68.56945709 51.87109375 74.86328125 C52.2590817 81.67070612 50.54066684 87.49744534 46.046875 92.703125 C41.74270505 96.69708451 37.45141409 98.88861713 31.4296875 98.8671875 C26.30181671 98.4673874 22.22910323 97.12807179 17.625 94.875 C17.625 94.215 17.625 93.555 17.625 92.875 C16.965 92.875 16.305 92.875 15.625 92.875 C10.95346348 86.78784635 9.96753924 81.4656833 10.625 73.875 C11.29166667 71.875 11.95833333 69.875 12.625 67.875 C12.22784264 63.59846631 10.63848567 61.12751545 8.0625 57.75 C7.34964844 56.79996094 6.63679688 55.84992188 5.90234375 54.87109375 C5.15082031 53.88238281 4.39929688 52.89367187 3.625 51.875 C2.11865417 49.85889246 0.61835664 47.83824759 -0.875 45.8125 C-1.5453125 44.91402344 -2.215625 44.01554687 -2.90625 43.08984375 C-4.375 40.875 -4.375 40.875 -4.375 38.875 C-7.31508676 39.2908778 -7.31508676 39.2908778 -10.375 40.875 C-11.83746053 43.57900557 -12.81945256 45.85548307 -13.76953125 48.734375 C-14.04721848 49.51637268 -14.3249057 50.29837036 -14.61100769 51.10406494 C-15.49196386 53.60393392 -16.33930205 56.11385283 -17.1875 58.625 C-17.77595578 60.30019682 -18.36642932 61.9746863 -18.95898438 63.6484375 C-22.49449259 73.0629673 -22.49449259 73.0629673 -24.375 82.875 C-23.06193567 84.8883653 -21.72662508 86.88731606 -20.375 88.875 C-18.87398244 95.07920593 -19.51565216 99.19409306 -22.375 104.875 C-23.035 105.865 -23.695 106.855 -24.375 107.875 C-25.035 107.875 -25.695 107.875 -26.375 107.875 C-26.07851562 108.56464844 -25.78203125 109.25429687 -25.4765625 109.96484375 C-24.2915288 113.0955179 -23.49839035 116.17557638 -22.75 119.4375 C-22.35941406 121.11005859 -22.35941406 121.11005859 -21.9609375 122.81640625 C-21.375 125.875 -21.375 125.875 -21.375 129.875 C-20.67375 129.9575 -19.9725 130.04 -19.25 130.125 C-14.39142154 131.39245525 -11.14576246 133.71885631 -8.375 137.875 C-7.74566806 142.83678554 -7.21135092 148.36225976 -9.35546875 152.9921875 C-12.08688367 156.37073764 -15.23483879 158.61465839 -19.55859375 159.140625 C-23.93759274 159.11026799 -27.39153112 158.93098394 -31.375 156.875 C-31.375 156.215 -31.375 155.555 -31.375 154.875 C-32.035 154.875 -32.695 154.875 -33.375 154.875 C-33.375 154.215 -33.375 153.555 -33.375 152.875 C-34.06722656 153.12894531 -34.75945312 153.38289062 -35.47265625 153.64453125 C-43.6901378 156.53526587 -51.82075457 158.33243115 -60.375 159.875 C-60.045 160.535 -59.715 161.195 -59.375 161.875 C-59.53419922 163.0285498 -59.69339844 164.18209961 -59.85742188 165.37060547 C-60.76835553 172.60418357 -60.83814656 178.50931998 -56.3203125 184.54003906 C-52.8869188 188.53307165 -49.14854116 192.18177505 -45.28808594 195.75927734 C-42.86066241 198.01331348 -40.51140009 200.33091362 -38.1640625 202.66796875 C-36.64465161 204.13958546 -35.1213409 205.6071887 -33.59375 207.0703125 C-32.89133179 207.75755402 -32.18891357 208.44479553 -31.46520996 209.15286255 C-28.04220195 212.28649733 -25.7671504 214.27899105 -20.99707031 214.24975586 C-19.80178711 214.12608643 -18.60650391 214.00241699 -17.375 213.875 C-16.65828125 214.14183594 -15.9415625 214.40867187 -15.203125 214.68359375 C-14.29820312 214.77833984 -14.29820312 214.77833984 -13.375 214.875 C-10.66977362 212.77870683 -10.66977362 212.77870683 -8.125 209.9375 C-7.23296875 209.00035156 -6.3409375 208.06320312 -5.421875 207.09765625 C-4.74640625 206.36417969 -4.0709375 205.63070312 -3.375 204.875 C-3.77332031 203.89273438 -3.77332031 203.89273438 -4.1796875 202.890625 C-10.18537567 187.37227746 -11.1839869 172.36980993 -4.375 156.875 C1.54945249 145.78471394 11.44206104 136.90794617 20.24389648 128.11083984 C21.15883377 127.19254395 22.07377106 126.27424805 23.01643372 125.328125 C25.49290497 122.84293202 27.97250299 120.3608831 30.453017 117.87972593 C32.00461288 116.32741444 33.55549266 114.77439111 35.10612679 113.22111893 C40.51998367 107.79805831 45.93636825 102.37753759 51.35522461 96.95947266 C56.40357895 91.91172253 61.44628909 86.85838104 66.48647636 81.80247724 C70.82534848 77.45055857 75.16803761 73.10247431 79.51375824 68.75739443 C82.10490913 66.16649875 84.69447596 63.57406639 87.28021049 60.97776413 C90.15188593 58.09466733 93.03144625 55.21957621 95.91186523 52.34521484 C96.7695047 51.48195587 97.62714417 50.6186969 98.51077271 49.72927856 C99.29144608 48.95279968 100.07211945 48.1763208 100.87644958 47.37631226 C101.89593264 46.35601205 101.89593264 46.35601205 102.93601131 45.31509972 C104.625 43.875 104.625 43.875 106.625 43.875 C106.625 43.215 106.625 42.555 106.625 41.875 C116.36699392 33.87459159 130.02609722 30.13338086 142.4375 31.1875 C144.16948821 31.39426448 145.89875377 31.62478276 147.625 31.875 C148.75035156 31.99488281 149.87570312 32.11476562 151.03515625 32.23828125 C154.84315625 32.91369365 157.77010805 34.08064849 161.25 35.75 C162.33539063 36.26304687 163.42078125 36.77609375 164.5390625 37.3046875 C167.33102848 38.72540943 170.03419653 40.11248314 172.625 41.875 C172.625 42.535 172.625 43.195 172.625 43.875 C173.285 43.875 173.945 43.875 174.625 43.875 C174.625 44.535 174.625 45.195 174.625 45.875 C175.285 45.875 175.945 45.875 176.625 45.875 C176.625 46.535 176.625 47.195 176.625 47.875 C177.285 47.875 177.945 47.875 178.625 47.875 C178.625 48.535 178.625 49.195 178.625 49.875 C179.285 49.875 179.945 49.875 180.625 49.875 C188.81663533 60.52816121 193.37333889 75.4830846 191.625 88.875 C189.56398552 100.76546814 186.034455 112.62244521 176.625 120.875 C175.965 120.875 175.305 120.875 174.625 120.875 C174.625 121.535 174.625 122.195 174.625 122.875 C173.965 122.875 173.305 122.875 172.625 122.875 C172.23828125 123.74898437 172.23828125 123.74898437 171.84375 124.640625 C170.52665983 127.0552903 169.07411616 128.69240177 167.125 130.625 C166.5165625 131.23859375 165.908125 131.8521875 165.28125 132.484375 C163.625 133.875 163.625 133.875 161.625 133.875 C161.625 134.535 161.625 135.195 161.625 135.875 C160.965 135.875 160.305 135.875 159.625 135.875 C159.625 136.535 159.625 137.195 159.625 137.875 C158.965 137.875 158.305 137.875 157.625 137.875 C157.3671875 138.45765625 157.109375 139.0403125 156.84375 139.640625 C155.52665983 142.0552903 154.07411616 143.69240177 152.125 145.625 C151.5165625 146.23859375 150.908125 146.8521875 150.28125 147.484375 C148.625 148.875 148.625 148.875 146.625 148.875 C146.625 149.535 146.625 150.195 146.625 150.875 C145.965 150.875 145.305 150.875 144.625 150.875 C144.3671875 151.45765625 144.109375 152.0403125 143.84375 152.640625 C142.52665983 155.0552903 141.07411616 156.69240177 139.125 158.625 C138.5165625 159.23859375 137.908125 159.8521875 137.28125 160.484375 C135.625 161.875 135.625 161.875 133.625 161.875 C133.625 162.535 133.625 163.195 133.625 163.875 C132.965 163.875 132.305 163.875 131.625 163.875 C131.625 164.535 131.625 165.195 131.625 165.875 C130.965 165.875 130.305 165.875 129.625 165.875 C129.3671875 166.45765625 129.109375 167.0403125 128.84375 167.640625 C127.52665983 170.0552903 126.07411616 171.69240177 124.125 173.625 C123.5165625 174.23859375 122.908125 174.8521875 122.28125 175.484375 C120.625 176.875 120.625 176.875 118.625 176.875 C118.625 177.535 118.625 178.195 118.625 178.875 C117.965 178.875 117.305 178.875 116.625 178.875 C116.3671875 179.45765625 116.109375 180.0403125 115.84375 180.640625 C114.52665983 183.0552903 113.07411616 184.69240177 111.125 186.625 C110.5165625 187.23859375 109.908125 187.8521875 109.28125 188.484375 C107.625 189.875 107.625 189.875 105.625 189.875 C105.625 190.535 105.625 191.195 105.625 191.875 C104.965 191.875 104.305 191.875 103.625 191.875 C103.625 192.535 103.625 193.195 103.625 193.875 C102.965 193.875 102.305 193.875 101.625 193.875 C101.398125 194.431875 101.17125 194.98875 100.9375 195.5625 C99.24949964 198.53659588 97.15823483 200.59508865 94.625 202.875 C93.965 202.875 93.305 202.875 92.625 202.875 C92.625 203.535 92.625 204.195 92.625 204.875 C91.965 204.875 91.305 204.875 90.625 204.875 C90.625 205.535 90.625 206.195 90.625 206.875 C89.965 206.875 89.305 206.875 88.625 206.875 C88.3671875 207.45765625 88.109375 208.0403125 87.84375 208.640625 C86.52665983 211.0552903 85.07411616 212.69240177 83.125 214.625 C82.5165625 215.23859375 81.908125 215.8521875 81.28125 216.484375 C79.625 217.875 79.625 217.875 77.625 217.875 C77.625 218.535 77.625 219.195 77.625 219.875 C66.36764266 229.60358042 52.87365009 231.30491617 38.625 230.875 C37.8721875 230.85824219 37.119375 230.84148437 36.34375 230.82421875 C26.6206874 230.20772022 17.45112261 225.44358724 9.625 219.875 C9.625 219.215 9.625 218.555 9.625 217.875 C5.50351657 216.04839803 5.50351657 216.04839803 1.25 216.75 C0.71375 217.12125 0.1775 217.4925 -0.375 217.875 C-0.375 218.535 -0.375 219.195 -0.375 219.875 C-1.035 219.875 -1.695 219.875 -2.375 219.875 C-2.375 220.535 -2.375 221.195 -2.375 221.875 C-3.035 221.875 -3.695 221.875 -4.375 221.875 C-4.705 222.865 -5.035 223.855 -5.375 224.875 C-5.045 225.535 -4.715 226.195 -4.375 226.875 C-4.07057341 231.33992339 -4.7866728 234.7056411 -6.375 238.875 C-7.035 238.875 -7.695 238.875 -8.375 238.875 C-8.643125 239.49375 -8.91125 240.1125 -9.1875 240.75 C-10.375 242.875 -10.375 242.875 -13.375 244.875 C-20.18019948 246.48262261 -25.0937185 245.7830007 -31.375 242.875 C-31.375 242.215 -31.375 241.555 -31.375 240.875 C-32.035 240.875 -32.695 240.875 -33.375 240.875 C-36.69770836 233.81424474 -36.69306054 227.6026932 -36.375 219.875 C-37.035 219.875 -37.695 219.875 -38.375 219.875 C-38.375 219.215 -38.375 218.555 -38.375 217.875 C-39.035 217.875 -39.695 217.875 -40.375 217.875 C-40.375 217.215 -40.375 216.555 -40.375 215.875 C-41.2103125 215.5346875 -41.2103125 215.5346875 -42.0625 215.1875 C-45.03659588 213.49949964 -47.09508865 211.40823483 -49.375 208.875 C-49.375 208.215 -49.375 207.555 -49.375 206.875 C-50.035 206.875 -50.695 206.875 -51.375 206.875 C-51.375 206.215 -51.375 205.555 -51.375 204.875 C-52.035 204.875 -52.695 204.875 -53.375 204.875 C-53.375 204.215 -53.375 203.555 -53.375 202.875 C-53.95765625 202.6171875 -54.5403125 202.359375 -55.140625 202.09375 C-57.5552903 200.77665983 -59.19240177 199.32411616 -61.125 197.375 C-61.73859375 196.7665625 -62.3521875 196.158125 -62.984375 195.53125 C-64.375 193.875 -64.375 193.875 -64.375 191.875 C-65.035 191.875 -65.695 191.875 -66.375 191.875 C-66.375 191.215 -66.375 190.555 -66.375 189.875 C-67.365 189.875 -68.355 189.875 -69.375 189.875 C-69.375 190.535 -69.375 191.195 -69.375 191.875 C-72.375 193.875 -72.375 193.875 -75.375 193.875 C-75.375 194.535 -75.375 195.195 -75.375 195.875 C-84.25985988 198.96538605 -91.59609264 198.69410913 -100.24609375 194.9453125 C-102.375 193.875 -102.375 193.875 -105.375 191.875 C-105.375 191.215 -105.375 190.555 -105.375 189.875 C-106.035 189.875 -106.695 189.875 -107.375 189.875 C-108.365 187.4 -108.365 187.4 -109.375 184.875 C-110.035 184.875 -110.695 184.875 -111.375 184.875 C-115.5054754 177.13689418 -116.04599766 169.83035794 -113.703125 161.48046875 C-112.55966508 157.86923563 -111.49330486 155.05245728 -109.375 151.875 C-108.715 151.875 -108.055 151.875 -107.375 151.875 C-107.16875 151.2975 -106.9625 150.72 -106.75 150.125 C-103.67263314 145.08930878 -98.77672033 143.67557344 -93.375 141.875 C-93.045 126.365 -92.715 110.855 -92.375 94.875 C-94.025 94.545 -95.675 94.215 -97.375 93.875 C-102.64044199 91.24227901 -107.19950403 87.44850517 -109.375 81.875 C-110.22292411 74.62748027 -110.57948686 67.4953876 -105.98046875 61.4921875 C-100.97044086 56.44559006 -95.95926481 54.12146585 -88.83203125 53.73828125 C-82.70871404 54.07900637 -77.76678287 56.62046034 -73.375 60.875 C-73.375 61.535 -73.375 62.195 -73.375 62.875 C-72.715 62.875 -72.055 62.875 -71.375 62.875 C-69.04909146 66.50923209 -69.21234167 69.64588331 -69.375 73.875 C-68.80394531 73.97296875 -68.23289063 74.0709375 -67.64453125 74.171875 C-62.53229161 75.11467277 -57.73737339 76.38804305 -52.8125 78.0625 C-47.121137 79.88994001 -43.20475269 80.06071241 -37.375 78.875 C-36.983125 77.699375 -36.59125 76.52375 -36.1875 75.3125 C-35.77564453 74.08466797 -35.77564453 74.08466797 -35.35546875 72.83203125 C-34.63752907 70.66677094 -33.9337902 68.49678794 -33.23828125 66.32421875 C-31.32470343 60.39189759 -29.35684433 54.62159874 -26.625 49 C-24.471502 44.40587093 -22.81257768 40.02012275 -23.375 34.875 C-25.09267582 32.08188307 -25.09267582 32.08188307 -27.375 29.875 C-30.06290131 24.32823547 -30.23509974 18.91873655 -29.375 12.875 C-27.05463444 7.18498591 -23.09671801 2.67250289 -17.71875 -0.31640625 C-11.89231573 -2.32652607 -5.77758765 -1.92586255 0 0 Z M-73.375 86.875 C-73.375 87.535 -73.375 88.195 -73.375 88.875 C-74.035 88.875 -74.695 88.875 -75.375 88.875 C-75.375 89.535 -75.375 90.195 -75.375 90.875 C-77.025 91.535 -78.675 92.195 -80.375 92.875 C-80.375 109.375 -80.375 125.875 -80.375 142.875 C-68.64808207 149.56819671 -68.64808207 149.56819671 -57.3125 148.125 C-55.97275141 147.74445648 -54.63290676 147.36425099 -53.29296875 146.984375 C-52.63216309 146.79423828 -51.97135742 146.60410156 -51.29052734 146.40820312 C-49.55455169 145.92497972 -47.8031116 145.49819009 -46.05078125 145.078125 C-44.60251953 144.73007812 -44.60251953 144.73007812 -43.125 144.375 C-42.27421875 144.1790625 -41.4234375 143.983125 -40.546875 143.78125 C-37.81862707 142.64284439 -36.83651381 141.41841365 -35.375 138.875 C-35.375 137.885 -35.375 136.895 -35.375 135.875 C-34.715 135.875 -34.055 135.875 -33.375 135.875 C-33.375 135.215 -33.375 134.555 -33.375 133.875 C-32.715 133.545 -32.055 133.215 -31.375 132.875 C-33.48942658 120.11979986 -33.48942658 120.11979986 -39.89453125 109.5078125 C-42.49314455 108.2607581 -42.49314455 108.2607581 -45.10546875 107.62109375 C-48.07070623 106.64629107 -48.85832887 105.57802432 -50.375 102.875 C-51.10546875 100.078125 -51.10546875 100.078125 -51.5625 97.125 C-51.72105469 96.14015625 -51.87960938 95.1553125 -52.04296875 94.140625 C-52.15253906 93.39296875 -52.26210937 92.6453125 -52.375 91.875 C-54.93486879 91.03274 -57.49739015 90.20101449 -60.0625 89.375 C-60.78373047 89.13652344 -61.50496094 88.89804688 -62.24804688 88.65234375 C-66.06907657 87.43101006 -69.30942056 86.55424423 -73.375 86.875 Z M60.625 105.875 C59.61102953 106.98238773 58.6307933 108.12067301 57.6640625 109.26953125 C53.34425303 114.27623232 48.69759722 118.91261275 44 123.5625 C43.16726563 124.39072266 42.33453125 125.21894531 41.4765625 126.07226562 C39.87729462 127.66262038 38.27700172 129.25194523 36.67553711 130.84008789 C35.12218429 132.38160423 33.57362659 133.92795442 32.02734375 135.4765625 C29.98039083 137.52018704 27.92054564 139.54897197 25.85546875 141.57421875 C24.50772358 142.90355569 23.16006904 144.23298452 21.8125 145.5625 C21.11962891 146.23861328 20.42675781 146.91472656 19.71289062 147.61132812 C19.05869141 148.25908203 18.40449219 148.90683594 17.73046875 149.57421875 C16.83557739 150.45339966 16.83557739 150.45339966 15.92260742 151.3503418 C14.40895795 152.79516253 14.40895795 152.79516253 14.625 154.875 C13.965 154.875 13.305 154.875 12.625 154.875 C11.09304146 156.91520955 11.09304146 156.91520955 9.625 159.5 C9.109375 160.35851562 8.59375 161.21703125 8.0625 162.1015625 C3.8121772 170.30191355 2.60520058 180.93111442 5.22265625 189.9296875 C6.69030212 193.75632436 8.55996048 197.34107821 10.625 200.875 C11.285 200.875 11.945 200.875 12.625 200.875 C12.87378906 201.4628125 13.12257812 202.050625 13.37890625 202.65625 C17.04814263 209.18956118 24.78158322 212.99185855 31.671875 215.21484375 C40.96626712 217.29255839 50.22999801 216.50152734 58.625 211.875 C65.98845215 206.70684289 72.25878288 200.50577863 78.56640625 194.12890625 C79.58443296 193.10713947 80.60290949 192.08582068 81.62181091 191.06492615 C84.27463347 188.40454529 86.92138893 185.73821042 89.5668335 183.07049561 C92.27847593 180.33822455 94.99594142 177.6117579 97.71289062 174.88476562 C103.02257271 169.55377171 108.32584495 164.21646042 113.625 158.875 C108.4407421 152.59983253 102.77034166 146.87407269 97.01171875 141.12890625 C95.99121255 140.10772532 94.97085474 139.08639608 93.95063782 138.06492615 C91.82670208 135.93952538 89.70099112 133.81592102 87.57397461 131.69360352 C84.8422504 128.96761973 82.11509909 126.23711175 79.38922405 123.50528049 C77.29017535 121.40263092 75.18876662 119.30235308 73.08661842 117.20280266 C72.07911514 116.19596771 71.07235762 115.18838594 70.06635094 114.18005562 C68.66863481 112.77981611 67.2673931 111.38309845 65.8659668 109.98657227 C65.06909958 109.19050064 64.27223236 108.39442902 63.45121765 107.57423401 C61.91873099 105.76146739 61.91873099 105.76146739 60.625 105.875 Z " fill="#105F8B" transform="translate(217.375,116.125)"/>
<path d="M0 0 C1.68802734 0.17982422 1.68802734 0.17982422 3.41015625 0.36328125 C7.21815625 1.03869365 10.14510805 2.20564849 13.625 3.875 C14.71039063 4.38804687 15.79578125 4.90109375 16.9140625 5.4296875 C19.70602848 6.85040943 22.40919653 8.23748314 25 10 C25 10.66 25 11.32 25 12 C25.66 12 26.32 12 27 12 C27 12.66 27 13.32 27 14 C27.66 14 28.32 14 29 14 C29 14.66 29 15.32 29 16 C29.66 16 30.32 16 31 16 C31 16.66 31 17.32 31 18 C31.66 18 32.32 18 33 18 C41.19163533 28.65316121 45.74833889 43.6080846 44 57 C41.93898552 68.89046814 38.409455 80.74744521 29 89 C28.34 89 27.68 89 27 89 C27 89.66 27 90.32 27 91 C26.34 91 25.68 91 25 91 C24.61328125 91.87398437 24.61328125 91.87398437 24.21875 92.765625 C22.90165983 95.1802903 21.44911616 96.81740177 19.5 98.75 C18.8915625 99.36359375 18.283125 99.9771875 17.65625 100.609375 C16 102 16 102 14 102 C14 102.66 14 103.32 14 104 C13.34 104 12.68 104 12 104 C12 104.66 12 105.32 12 106 C11.34 106 10.68 106 10 106 C9.61328125 106.87398437 9.61328125 106.87398437 9.21875 107.765625 C7.90165983 110.1802903 6.44911616 111.81740177 4.5 113.75 C3.8915625 114.36359375 3.283125 114.9771875 2.65625 115.609375 C1 117 1 117 -1 117 C-1 117.66 -1 118.32 -1 119 C-1.66 119 -2.32 119 -3 119 C-3.38671875 119.87398437 -3.38671875 119.87398437 -3.78125 120.765625 C-5.09834017 123.1802903 -6.55088384 124.81740177 -8.5 126.75 C-9.1084375 127.36359375 -9.716875 127.9771875 -10.34375 128.609375 C-12 130 -12 130 -14 130 C-14 130.66 -14 131.32 -14 132 C-14.66 132 -15.32 132 -16 132 C-16 132.66 -16 133.32 -16 134 C-16.66 134 -17.32 134 -18 134 C-18.66 135.32 -19.32 136.64 -20 138 C-20.99 138 -21.98 138 -23 138 C-23.66 137.34 -24.32 136.68 -25 136 C-25.99 136.99 -26.98 137.98 -28 139 C-27.835 138.360625 -27.67 137.72125 -27.5 137.0625 C-26.96073333 135.19173179 -26.96073333 135.19173179 -27 134 C-28.32 134 -29.64 134 -31 134 C-31.66 132.02 -32.32 130.04 -33 128 C-33.99 128 -34.98 128 -36 128 C-36 127.01 -36 126.02 -36 125 C-37.95577157 122.6035672 -37.95577157 122.6035672 -40.58984375 120.06958008 C-41.07752228 119.58146347 -41.56520081 119.09334686 -42.06765747 118.59043884 C-43.68393004 116.97625895 -45.31057485 115.37296808 -46.9375 113.76953125 C-48.05916419 112.6534613 -49.18016855 111.53672785 -50.30053711 110.4193573 C-53.25315553 107.47820112 -56.2146718 104.54616407 -59.17810059 101.61590576 C-62.19965665 98.62502077 -65.21275304 95.62564038 -68.2265625 92.62695312 C-74.14277266 86.74293145 -80.06840515 80.86851206 -86 75 C-86.39268066 75.41886475 -86.78536133 75.83772949 -87.18994141 76.26928711 C-88.98820407 78.17191559 -90.80612276 80.05457778 -92.625 81.9375 C-93.24246094 82.59685547 -93.85992187 83.25621094 -94.49609375 83.93554688 C-98.14500224 87.68047928 -100.49632502 89.87299212 -106 90 C-106 90.66 -106 91.32 -106 92 C-107.76957906 94.3283935 -108.81583516 94.95288806 -111.6875 95.6875 C-112.450625 95.790625 -113.21375 95.89375 -114 96 C-114.66 94.68 -115.32 93.36 -116 92 C-116.66 92 -117.32 92 -118 92 C-118.66 91.67 -119.32 91.34 -120 91 C-117.43909047 86.05352084 -113.8047728 82.52265776 -109.89819336 78.6394043 C-109.17920364 77.91690994 -108.46021393 77.19441559 -107.71943665 76.45002747 C-105.34790372 74.0697105 -102.96915229 71.69676153 -100.58984375 69.32421875 C-98.93953147 67.67255931 -97.28951618 66.02060306 -95.63978577 64.36836243 C-92.18554559 60.91117587 -88.72771865 57.45762784 -85.26733398 54.0065918 C-80.82264451 49.57332328 -76.38702871 45.13110167 -71.95403194 40.68614483 C-68.55113277 37.27603685 -65.14350704 33.87068428 -61.73440742 30.46677589 C-60.09619699 28.82990328 -58.459481 27.19153364 -56.82426262 25.55167198 C-54.54510308 23.26746047 -52.25967832 20.98971299 -49.97241211 18.71362305 C-49.29236115 18.02952362 -48.61231018 17.34542419 -47.91165161 16.64059448 C-46.98005974 15.71746208 -46.98005974 15.71746208 -46.02964783 14.77568054 C-45.48968642 14.23647319 -44.94972502 13.69726583 -44.39340115 13.14171886 C-43 12 -43 12 -41 12 C-41 11.34 -41 10.68 -41 10 C-29.5173073 0.57007918 -14.32168421 -2.0759103 0 0 Z " fill="#0A5D8A" transform="translate(365,148)"/>
<path d="M0 0 C0.66 0.66 1.32 1.32 2 2 C0.04761147 4.00612399 -1.91137822 6.00492433 -3.875 8 C-4.43058594 8.57234375 -4.98617187 9.1446875 -5.55859375 9.734375 C-7.00134404 11.19450782 -8.4974374 12.60149298 -10 14 C-10.66 14 -11.32 14 -12 14 C-12.259021 14.58571777 -12.51804199 15.17143555 -12.78491211 15.77490234 C-14.09002126 18.16484906 -15.49339328 19.7071834 -17.44140625 21.6015625 C-18.10720703 22.25640625 -18.77300781 22.91125 -19.45898438 23.5859375 C-20.15314453 24.25882812 -20.84730469 24.93171875 -21.5625 25.625 C-22.94098537 26.96911869 -24.31739401 28.31537153 -25.69140625 29.6640625 C-26.30185791 30.25654785 -26.91230957 30.8490332 -27.54125977 31.45947266 C-29.09810782 32.95434048 -29.09810782 32.95434048 -30 35 C-30.66 35 -31.32 35 -32 35 C-32.268125 35.721875 -32.53625 36.44375 -32.8125 37.1875 C-34 40 -34 40 -35.5 42.4375 C-38.78158657 48.04354373 -39.31718644 53.10517817 -39.25 59.4375 C-39.25773438 60.16259766 -39.26546875 60.88769531 -39.2734375 61.63476562 C-39.25613905 66.44806039 -38.51688315 70.43129241 -37 75 C-37.66 75 -38.32 75 -39 75 C-39 73.68 -39 72.36 -39 71 C-41.64 71.99 -44.28 72.98 -47 74 C-46.67 77.63 -46.34 81.26 -46 85 C-52.62954761 78.37045239 -53.92952841 67.84209477 -54.0390625 58.76171875 C-52.74352033 33.00510646 -34.13999431 17.94813972 -17 1 C-16.34 1.66 -15.68 2.32 -15 3 C-14.01 3 -13.02 3 -12 3 C-11.505 4.98 -11.505 4.98 -11 7 C-9.35 7 -7.7 7 -6 7 C-5.67 6.01 -5.34 5.02 -5 4 C-4.34 4 -3.68 4 -3 4 C-3 3.34 -3 2.68 -3 2 C-2.01 2 -1.02 2 0 2 C0 1.34 0 0.68 0 0 Z " fill="#135F8A" transform="translate(262,236)"/>
<path d="M0 0 C6.36590304 5.24458586 12.13570612 11.02097322 17.9375 16.875 C18.91708237 17.85960919 19.89689837 18.843986 20.87695312 19.828125 C23.25360252 22.21648203 25.62787356 24.60715212 28 27 C27.34 27.33 26.68 27.66 26 28 C26 28.66 26 29.32 26 30 C24.02 29.67 22.04 29.34 20 29 C20.01160156 29.88042969 20.02320313 30.76085937 20.03515625 31.66796875 C20.04417969 32.82941406 20.05320313 33.99085938 20.0625 35.1875 C20.07410156 36.33605469 20.08570313 37.48460937 20.09765625 38.66796875 C20.01192832 41.59300586 19.67849023 44.16316291 19 47 C18.67 47 18.34 47 18 47 C18 42.71 18 38.42 18 34 C17.34 34 16.68 34 16 34 C16 33.34 16 32.68 16 32 C15.34 32 14.68 32 14 32 C14 31.34 14 30.68 14 30 C13.443125 29.773125 12.88625 29.54625 12.3125 29.3125 C9.33840412 27.62449964 7.27991135 25.53323483 5 23 C5 22.34 5 21.68 5 21 C4.34 21 3.68 21 3 21 C3 20.34 3 19.68 3 19 C2.34 19 1.68 19 1 19 C1 18.34 1 17.68 1 17 C0.01 16.67 -0.98 16.34 -2 16 C-1.34 15.34 -0.68 14.68 0 14 C0 12.68 0 11.36 0 10 C0.66 9.01 1.32 8.02 2 7 C2 6.34 2 5.68 2 5 C1.34 5 0.68 5 0 5 C0 4.34 0 3.68 0 3 C-0.66 2.67 -1.32 2.34 -2 2 C-1.34 2 -0.68 2 0 2 C0 1.34 0 0.68 0 0 Z " fill="#15618B" transform="translate(163,302)"/>
<path d="M0 0 C0.66 0.66 1.32 1.32 2 2 C0.04761147 4.00612399 -1.91137822 6.00492433 -3.875 8 C-4.43058594 8.57234375 -4.98617188 9.1446875 -5.55859375 9.734375 C-7.00134404 11.19450782 -8.4974374 12.60149298 -10 14 C-10.66 14 -11.32 14 -12 14 C-12.20367187 14.53109375 -12.40734375 15.0621875 -12.6171875 15.609375 C-14.59505609 19.02874104 -17.30326899 21.51337921 -20.125 24.25 C-20.68832031 24.80429687 -21.25164062 25.35859375 -21.83203125 25.9296875 C-23.21686028 27.29104485 -24.60783204 28.64614859 -26 30 C-26.66 28.68 -27.32 27.36 -28 26 C-26.68 26 -25.36 26 -24 26 C-24.33 23.36 -24.66 20.72 -25 18 C-25.99 18 -26.98 18 -28 18 C-28.87109375 15.89453125 -28.87109375 15.89453125 -29 13 C-27.34633148 10.56093575 -25.23058898 8.66789648 -23.0625 6.6875 C-22.48564453 6.13771484 -21.90878906 5.58792969 -21.31445312 5.02148438 C-19.88938934 3.66708491 -18.44634142 2.33165356 -17 1 C-16.34 1.66 -15.68 2.32 -15 3 C-14.01 3 -13.02 3 -12 3 C-11.67 4.32 -11.34 5.64 -11 7 C-9.35 7 -7.7 7 -6 7 C-5.67 6.01 -5.34 5.02 -5 4 C-4.34 4 -3.68 4 -3 4 C-3 3.34 -3 2.68 -3 2 C-2.01 2 -1.02 2 0 2 C0 1.34 0 0.68 0 0 Z " fill="#226791" transform="translate(262,236)"/>
<path d="M0 0 C0.66 0 1.32 0 2 0 C1.31077054 4.01457434 0.13280541 7.67938883 -1.25 11.5078125 C-1.6934375 12.74144531 -2.136875 13.97507813 -2.59375 15.24609375 C-3.06238815 16.53910305 -3.53113933 17.83207138 -4 19.125 C-4.46908061 20.42566206 -4.93783387 21.72644224 -5.40625 23.02734375 C-6.26390546 25.40833494 -7.12312076 27.78876523 -7.984375 30.16845703 C-8.67875642 32.10437908 -9.34961859 34.04885578 -10 36 C-10.99 36 -11.98 36 -13 36 C-13 34.68 -13 33.36 -13 32 C-15.31 31.67 -17.62 31.34 -20 31 C-20 31.66 -20 32.32 -20 33 C-22.95664519 34.4783226 -25.74229737 34.06032783 -29 34 C-28.67 33.34 -28.34 32.68 -28 32 C-26.02 32 -24.04 32 -22 32 C-21.81824219 31.45472656 -21.63648438 30.90945312 -21.44921875 30.34765625 C-19.6328125 24.8984375 -17.81640625 19.44921875 -16 14 C-15.67 14 -15.34 14 -15 14 C-15 15.65 -15 17.3 -15 19 C-14.34 19 -13.68 19 -13 19 C-12.87625 18.21625 -12.7525 17.4325 -12.625 16.625 C-12 14 -12 14 -10 12 C-9.67 13.32 -9.34 14.64 -9 16 C-7.68 15.67 -6.36 15.34 -5 15 C-4.87625 13.72125 -4.7525 12.4425 -4.625 11.125 C-4.25 7.25 -4.25 7.25 -2 5 C-1.29289322 3.35008418 -0.62056011 1.68437744 0 0 Z " fill="#1B658F" transform="translate(202,163)"/>
<path d="M0 0 C0.49628906 0.38671875 0.99257812 0.7734375 1.50390625 1.171875 C5.84883147 4.50270951 10.18629161 7.39257462 15 10 C14.67 10.99 14.34 11.98 14 13 C13.01 13 12.02 13 11 13 C11 13.66 11 14.32 11 15 C9.5 16.625 9.5 16.625 8 18 C8.99 19.32 9.98 20.64 11 22 C9.328125 22.67578125 9.328125 22.67578125 7 23 C4.421875 21.85546875 4.421875 21.85546875 1.75 20.1875 C0.85796875 19.64480469 -0.0340625 19.10210937 -0.953125 18.54296875 C-1.62859375 18.03378906 -2.3040625 17.52460938 -3 17 C-3 16.34 -3 15.68 -3 15 C-7.12148343 13.17339803 -7.12148343 13.17339803 -11.375 13.875 C-11.91125 14.24625 -12.4475 14.6175 -13 15 C-13 15.66 -13 16.32 -13 17 C-13.66 17 -14.32 17 -15 17 C-15 17.66 -15 18.32 -15 19 C-15.66 19 -16.32 19 -17 19 C-17.33 19.66 -17.66 20.32 -18 21 C-18.75 19.25 -18.75 19.25 -19 17 C-17.25 14.9375 -17.25 14.9375 -15 13 C-14.566875 12.4225 -14.13375 11.845 -13.6875 11.25 C-11.01442342 9.26994327 -8.23246267 9.94122795 -5 10 C-4.34 9.34 -3.68 8.68 -3 8 C-3.33 9.65 -3.66 11.3 -4 13 C-3.34 13 -2.68 13 -2 13 C-2 13.99 -2 14.98 -2 16 C-1.01 16 -0.02 16 1 16 C1 15.01 1 14.02 1 13 C2.31787285 11.97971135 3.65210653 10.98028616 5 10 C5.33 9.01 5.66 8.02 6 7 C4.68 7 3.36 7 2 7 C1.67 6.01 1.34 5.02 1 4 C0.34 3.67 -0.32 3.34 -1 3 C-0.67 2.01 -0.34 1.02 0 0 Z " fill="#1F668D" transform="translate(230,319)"/>
<path d="M0 0 C4.18498487 3.06898891 5.05483362 6.49725965 5.88671875 11.39453125 C6.11726287 16.69704598 3.90627328 20.64059008 1 25 C0.34 25 -0.32 25 -1 25 C-0.690625 25.66 -0.38125 26.32 -0.0625 27 C1.28971751 30.81802592 1.80345207 33.93800942 2 38 C0.53421556 40.39154304 -0.50861176 40.82656886 -3.125 41.75 C-3.74375 41.8325 -4.3625 41.915 -5 42 C-5.33 41.67 -5.66 41.34 -6 41 C-6.33 43.31 -6.66 45.62 -7 48 C-7.33 48 -7.66 48 -8 48 C-8.99 43.05 -9.98 38.1 -11 33 C-9.02 32.505 -9.02 32.505 -7 32 C-6.67 31.34 -6.34 30.68 -6 30 C-5.34 30 -4.68 30 -4 30 C-3.67 28.02 -3.34 26.04 -3 24 C-2.01 24 -1.02 24 0 24 C0.2165625 23.1028125 0.2165625 23.1028125 0.4375 22.1875 C0.8872439 20.43849596 1.42892341 18.71322977 2 17 C2.66 17 3.32 17 4 17 C3.52129086 14.91656149 3.04201531 12.83325311 2.5625 10.75 C2.29566406 9.58984375 2.02882812 8.4296875 1.75390625 7.234375 C1.19032 4.81650239 0.61330049 2.40556696 0 0 Z " fill="#296C93" transform="translate(192,199)"/>
<path d="M0 0 C3.68006822 3.38168431 5.9785845 6.42521756 8 11 C6.86415337 12.13584663 5.7088863 13.25472448 4.5 14.3125 C2.66975542 16.37152515 1.90712084 18.41819454 1 21 C-2.72619658 16.37951624 -6.36230673 11.69017194 -10 7 C-9.34 5.68 -8.68 4.36 -8 3 C-8 3.99 -8 4.98 -8 6 C-7.236875 5.690625 -6.47375 5.38125 -5.6875 5.0625 C-3.81210323 4.32106407 -1.91315348 3.63771783 0 3 C0 2.01 0 1.02 0 0 Z " fill="#23678D" transform="translate(223,150)"/>
<path d="M0 0 C7.48291572 6.15034169 7.48291572 6.15034169 10 10 C9.34 10 8.68 10 8 10 C8 10.66 8 11.32 8 12 C5.03 11.505 5.03 11.505 2 11 C2.01160156 11.88042969 2.02320313 12.76085937 2.03515625 13.66796875 C2.04869141 15.41013672 2.04869141 15.41013672 2.0625 17.1875 C2.07410156 18.33605469 2.08570313 19.48460937 2.09765625 20.66796875 C2.01192832 23.59300586 1.67849023 26.16316291 1 29 C0.67 29 0.34 29 0 29 C0 24.71 0 20.42 0 16 C-0.66 16 -1.32 16 -2 16 C-2 15.34 -2 14.68 -2 14 C-2.66 14 -3.32 14 -4 14 C-4 13.34 -4 12.68 -4 12 C-4.639375 11.71125 -5.27875 11.4225 -5.9375 11.125 C-8 10 -8 10 -9 8 C-6.03 8.495 -6.03 8.495 -3 9 C-0.70620251 5.55930376 0 4.27709699 0 0 Z " fill="#407999" transform="translate(181,320)"/>
<path d="M0 0 C1.52808012 4.58424035 -0.52813888 7.54024663 -2.3984375 11.83984375 C-5.06683428 17.10504618 -8.19099354 23.06366451 -14 25 C-14 25.66 -14 26.32 -14 27 C-14.66 27 -15.32 27 -16 27 C-16.309375 27.8353125 -16.309375 27.8353125 -16.625 28.6875 C-18.55000774 31.92501302 -21.03850902 33.68231141 -24 36 C-24.33 34.68 -24.66 33.36 -25 32 C-23.68 32 -22.36 32 -21 32 C-21.33 31.01 -21.66 30.02 -22 29 C-20.68 28.67 -19.36 28.34 -18 28 C-18 26.68 -18 25.36 -18 24 C-17.01 24 -16.02 24 -15 24 C-14.9175 23.236875 -14.835 22.47375 -14.75 21.6875 C-14 19 -14 19 -12.125 17.1875 C-10 16 -10 16 -7 16 C-7 15.01 -7 14.02 -7 13 C-6.34 13 -5.68 13 -5 13 C-4.9175 12.154375 -4.835 11.30875 -4.75 10.4375 C-3.84266147 6.27886509 -2.23458727 3.60417301 0 0 Z " fill="#3F769A" transform="translate(406,212)"/>
<path d="M0 0 C0 0.66 0 1.32 0 2 C-0.99 2.495 -0.99 2.495 -2 3 C-2 3.66 -2 4.32 -2 5 C-1.01 5 -0.02 5 1 5 C1.33 4.34 1.66 3.68 2 3 C4.31 3.66 6.62 4.32 9 5 C9.8125 7.1875 9.8125 7.1875 10 10 C7.5625 12.8125 7.5625 12.8125 5 15 C2.5625 14.3125 2.5625 14.3125 0 13 C-0.8125 10.375 -0.8125 10.375 -1 8 C-1.66 8 -2.32 8 -3 8 C-4.6875 6.75 -4.6875 6.75 -6 5 C-5.8125 2.875 -5.8125 2.875 -5 1 C-3 0 -3 0 0 0 Z " fill="#0A5C89" transform="translate(172,315)"/>
<path d="M0 0 C0.33 1.32 0.66 2.64 1 4 C0.67 4.33 0.34 4.66 0 5 C0.66 5 1.32 5 2 5 C2.165 4.360625 2.33 3.72125 2.5 3.0625 C4 1 4 1 5.9140625 0.51171875 C7.93575155 0.2724022 9.96841939 0.13106972 12 0 C12 1.65 12 3.3 12 5 C12.66 5.33 13.32 5.66 14 6 C12.625 8 12.625 8 11 10 C10.34 10 9.68 10 9 10 C8.34 11.65 7.68 13.3 7 15 C6.01 15 5.02 15 4 15 C4.66 14.67 5.32 14.34 6 14 C6.36548445 12.67511887 6.6937566 11.33981486 7 10 C7.63654342 8.6520257 8.29605388 7.31403276 9 6 C8.01 5.67 7.02 5.34 6 5 C5.67 4.67 5.34 4.34 5 4 C4.67 5.65 4.34 7.3 4 9 C2.68 9 1.36 9 0 9 C0 9.66 0 10.32 0 11 C-0.66 11 -1.32 11 -2 11 C-3.625 9 -3.625 9 -5 7 C-3.35 4.69 -1.7 2.38 0 0 Z " fill="#206893" transform="translate(221,261)"/>
<path d="M0 0 C1.34191406 0.13535156 1.34191406 0.13535156 2.7109375 0.2734375 C3.67257812 0.38945312 4.63421875 0.50546875 5.625 0.625 C6.759375 0.74359375 7.89375 0.8621875 9.0625 0.984375 C12.85351007 1.66609172 15.78369495 2.83716631 19.25 4.5 C20.33539063 5.01304687 21.42078125 5.52609375 22.5390625 6.0546875 C25.33102848 7.47540943 28.03419653 8.86248314 30.625 10.625 C30.625 11.285 30.625 11.945 30.625 12.625 C31.285 12.625 31.945 12.625 32.625 12.625 C32.625 13.285 32.625 13.945 32.625 14.625 C33.285 14.625 33.945 14.625 34.625 14.625 C34.295 15.285 33.965 15.945 33.625 16.625 C30.625 15.625 30.625 15.625 28.625 12.625 C25.05730448 11.88893501 25.05730448 11.88893501 21.625 11.625 C20.965 9.975 20.305 8.325 19.625 6.625 C17.315 6.295 15.005 5.965 12.625 5.625 C12.625 4.965 12.625 4.305 12.625 3.625 C11.38363281 3.56441406 10.14226562 3.50382813 8.86328125 3.44140625 C7.22134423 3.35696377 5.57941768 3.27231764 3.9375 3.1875 C3.12087891 3.14818359 2.30425781 3.10886719 1.46289062 3.06835938 C-2.57155811 2.85601997 -6.43247309 2.58052078 -10.375 1.625 C-10.375 1.295 -10.375 0.965 -10.375 0.625 C-6.73395893 -0.25568502 -3.71921135 -0.39430034 0 0 Z " fill="#467996" transform="translate(359.375,147.375)"/>
<path d="M0 0 C0 0.33 0 0.66 0 1 C-3.29070841 1.83714909 -6.58271647 2.66906896 -9.875 3.5 C-11.28072266 3.85771484 -11.28072266 3.85771484 -12.71484375 4.22265625 C-13.61074219 4.44824219 -14.50664062 4.67382812 -15.4296875 4.90625 C-16.25710449 5.11572266 -17.08452148 5.32519531 -17.93701172 5.54101562 C-20 6 -20 6 -22 6 C-21.67 6.66 -21.34 7.32 -21 8 C-21.07427857 11.72878421 -21.17443465 15.44859675 -21.390625 19.171875 C-21.50508282 23.52127205 -21.33269181 26.15934135 -18.484375 29.578125 C-17.66453125 30.37734375 -16.8446875 31.1765625 -16 32 C-18.64824722 31.64212875 -20.55535876 31.31760089 -22.75 29.75 C-24.31760089 27.55535876 -24.64212875 25.64824722 -25 23 C-24.34 23 -23.68 23 -23 23 C-23.33 16.73 -23.66 10.46 -24 4 C-16.125 2.5625 -16.125 2.5625 -13.64892578 2.11547852 C-1.98555065 -0.04316414 -1.98555065 -0.04316414 0 0 Z " fill="#386D8B" transform="translate(179,270)"/>
<path d="M0 0 C-0.66 1.32 -1.32 2.64 -2 4 C-1.071875 4 -0.14375 4 0.8125 4 C2.875 4 4.9375 4 7 4 C7.66 3.34 8.32 2.68 9 2 C9.33 2.99 9.66 3.98 10 5 C10.66 5.33 11.32 5.66 12 6 C10.94941406 6.19335938 9.89882812 6.38671875 8.81640625 6.5859375 C1.51380932 7.93778729 -5.7641032 9.32023824 -13 11 C-13.33 9.68 -13.66 8.36 -14 7 C-13.01 7 -12.02 7 -11 7 C-8.27073609 4.68743506 -8.27073609 4.68743506 -6 2 C-6 1.34 -6 0.68 -6 0 C-3.50907189 -1.24546405 -2.58919267 -0.7767578 0 0 Z " fill="#0C5984" transform="translate(167,264)"/>
<path d="M0 0 C0.33 0.99 0.66 1.98 1 3 C-1.99121609 7.04693942 -5.44329839 10.44329839 -9 14 C-11.69973679 17.0996978 -12.83764912 20.06588932 -14 24 C-15.65 23.67 -17.3 23.34 -19 23 C-19.33 23.66 -19.66 24.32 -20 25 C-21.32 24.67 -22.64 24.34 -24 24 C-16.08 16.08 -8.16 8.16 0 0 Z " fill="#336C8E" transform="translate(270,212)"/>
<path d="M0 0 C1.32 0.33 2.64 0.66 4 1 C3.34 2.65 2.68 4.3 2 6 C3.65 6.33 5.3 6.66 7 7 C7 6.34 7 5.68 7 5 C7.99 5.33 8.98 5.66 10 6 C9.04578192 7.14926266 8.08647955 8.29430541 7.125 9.4375 C6.59132813 10.07558594 6.05765625 10.71367187 5.5078125 11.37109375 C4 13 4 13 2 14 C1.34 13.01 0.68 12.02 0 11 C-1.65 11.66 -3.3 12.32 -5 13 C-5.64165788 7.73840541 -4.20577001 5.31407151 -1.09375 1.3203125 C-0.55234375 0.66675781 -0.55234375 0.66675781 0 0 Z " fill="#085D8C" transform="translate(262,223)"/>
<path d="M0 0 C0.99 0 1.98 0 3 0 C3.33 0.99 3.66 1.98 4 3 C3.34 3 2.68 3 2 3 C2 3.66 2 4.32 2 5 C1.34 5 0.68 5 0 5 C-0.2578125 5.58265625 -0.515625 6.1653125 -0.78125 6.765625 C-2.09834017 9.1802903 -3.55088384 10.81740177 -5.5 12.75 C-6.41265625 13.67039062 -6.41265625 13.67039062 -7.34375 14.609375 C-9 16 -9 16 -11 16 C-11 16.66 -11 17.32 -11 18 C-11.66 17.67 -12.32 17.34 -13 17 C-13.375 14.8125 -13.375 14.8125 -13 12 C-10.3125 9.5 -10.3125 9.5 -8.66015625 8.26953125 C-6.72274671 6.85081573 -6.72274671 6.85081573 -4.25 4.1875 C-2 2 -2 2 0 2 C0 1.34 0 0.68 0 0 Z " fill="#3F7597" transform="translate(306,318)"/>
<path d="M0 0 C0 3 0 3 -1.0625 5.4375 C-2.07746423 8.21173555 -2.00487696 9.2868322 -1 12 C0.65 12.33 2.3 12.66 4 13 C3.43040847 16.62613199 2.07625466 18.25517741 -0.5625 20.75 C-1.52349609 21.67039062 -1.52349609 21.67039062 -2.50390625 22.609375 C-2.99761719 23.06828125 -3.49132812 23.5271875 -4 24 C-4.66 22.68 -5.32 21.36 -6 20 C-4.68 20 -3.36 20 -2 20 C-2.33 17.36 -2.66 14.72 -3 12 C-3.99 12 -4.98 12 -6 12 C-6.9375 9.9375 -6.9375 9.9375 -7 7 C-4.92608855 4.37232162 -2.52709628 2.18678905 0 0 Z " fill="#085C90" transform="translate(240,242)"/>
<path d="M0 0 C0.33 0.99 0.66 1.98 1 3 C0.67 3.66 0.34 4.32 0 5 C0.66 5 1.32 5 2 5 C2 5.99 2 6.98 2 8 C2.94875 8.12375 3.8975 8.2475 4.875 8.375 C8 9 8 9 10 11 C9.67 11.66 9.34 12.32 9 13 C6.0280615 11.87548273 3.66559313 10.77706209 1 9 C1 8.34 1 7.68 1 7 C-3.12148343 5.17339803 -3.12148343 5.17339803 -7.375 5.875 C-7.91125 6.24625 -8.4475 6.6175 -9 7 C-9 7.66 -9 8.32 -9 9 C-9.66 9 -10.32 9 -11 9 C-11 9.66 -11 10.32 -11 11 C-11.66 11 -12.32 11 -13 11 C-13.33 11.66 -13.66 12.32 -14 13 C-14.75 11.25 -14.75 11.25 -15 9 C-13.25 6.9375 -13.25 6.9375 -11 5 C-10.566875 4.4225 -10.13375 3.845 -9.6875 3.25 C-6.97130033 1.23800025 -4.258318 1.81556691 -1 2 C-0.67 1.34 -0.34 0.68 0 0 Z " fill="#5483A1" transform="translate(226,327)"/>
<path d="M0 0 C2.97 0.495 2.97 0.495 6 1 C5.690625 2.051875 5.38125 3.10375 5.0625 4.1875 C4.24314906 7.12752396 3.54516069 10.00161623 3 13 C1.02 13 -0.96 13 -3 13 C-3.33 12.01 -3.66 11.02 -4 10 C-3.67 9.34 -3.34 8.68 -3 8 C-3.66 7.67 -4.32 7.34 -5 7 C-4.34 7 -3.68 7 -3 7 C-2.87625 6.401875 -2.7525 5.80375 -2.625 5.1875 C-2 3 -2 3 0 0 Z " fill="#065C88" transform="translate(241,242)"/>
<path d="M0 0 C1.5 1.375 1.5 1.375 3 3 C3 3.66 3 4.32 3 5 C3.66 5 4.32 5 5 5 C9 10.41176471 9 10.41176471 9 13 C9.90878906 12.83951172 9.90878906 12.83951172 10.8359375 12.67578125 C17.60367327 11.70747444 22.6300588 12.60110725 29 15 C25.89315935 15.95139197 23.45494879 16.01111621 20.234375 15.66015625 C19.34492188 15.56669922 18.45546875 15.47324219 17.5390625 15.37695312 C16.61867187 15.27318359 15.69828125 15.16941406 14.75 15.0625 C13.81414062 14.96259766 12.87828125 14.86269531 11.9140625 14.75976562 C9.60862401 14.51275436 7.30408452 14.25928885 5 14 C5 13.34 5 12.68 5 12 C4.34 11.67 3.68 11.34 3 11 C3 9.68 3 8.36 3 7 C2.505 6.505 2.01 6.01 1.5 5.5 C1.005 5.005 0.51 4.51 0 4 C0 2.68 0 1.36 0 0 Z " fill="#306E92" transform="translate(231,161)"/>
<path d="M0 0 C0.66 0 1.32 0 2 0 C2.33 1.98 2.66 3.96 3 6 C3.99 6.33 4.98 6.66 6 7 C5.67 8.65 5.34 10.3 5 12 C4.01 11.67 3.02 11.34 2 11 C1.34 11.66 0.68 12.32 0 13 C-0.99 12.67 -1.98 12.34 -3 12 C-3 11.34 -3 10.68 -3 10 C-3.66 10 -4.32 10 -5 10 C-3.25 4.25 -3.25 4.25 -1 2 C-0.67 1.34 -0.34 0.68 0 0 Z " fill="#0C5880" transform="translate(229,161)"/>
<path d="M0 0 C0.66 0 1.32 0 2 0 C2 1.32 2 2.64 2 4 C3.98 3.67 5.96 3.34 8 3 C8 3.66 8 4.32 8 5 C8.66 5 9.32 5 10 5 C10.33 5.99 10.66 6.98 11 8 C9.0625 10.6875 9.0625 10.6875 7 13 C7.66 13.33 8.32 13.66 9 14 C8.01 14.33 7.02 14.66 6 15 C5.67 13.35 5.34 11.7 5 10 C4.34 10 3.68 10 3 10 C3 9.01 3 8.02 3 7 C1.68 6.67 0.36 6.34 -1 6 C-1.042721 4.33388095 -1.04063832 2.66617115 -1 1 C-0.67 0.67 -0.34 0.34 0 0 Z " fill="#085C8A" transform="translate(155,302)"/>
<path d="M0 0 C1.65 0.33 3.3 0.66 5 1 C5.33 2.65 5.66 4.3 6 6 C4.3125 7.5625 4.3125 7.5625 2 9 C-0.25 8.6875 -0.25 8.6875 -3 8 C-5.67364232 7.900423 -8.32323456 7.95463109 -11 8 C-9.68 7.67 -8.36 7.34 -7 7 C-7 6.34 -7 5.68 -7 5 C-2.61538462 2 -2.61538462 2 0 2 C0 1.34 0 0.68 0 0 Z " fill="#0B5885" transform="translate(217,147)"/>
<path d="M0 0 C1 2 1 2 0.2578125 4.2578125 C-0.11601562 5.20398438 -0.48984375 6.15015625 -0.875 7.125 C-3.15964851 13.62564938 -3.58891752 19.51892459 -3.82421875 26.3359375 C-3.98284896 29.6424961 -4.38161911 32.75224346 -5 36 C-5.33 36 -5.66 36 -6 36 C-7.50470989 23.39297121 -6.58374442 12.53006964 -1 1 C-0.67 0.67 -0.34 0.34 0 0 Z " fill="#547F99" transform="translate(215,270)"/>
<path d="M0 0 C-3.20183397 1.06727799 -4.49713664 0.89020507 -7.75 0.375 C-12.88200098 -0.20104093 -15.53971929 0.41303719 -20 3 C-22.37791979 5.04044964 -22.37791979 5.04044964 -24 7 C-24.33 6.67 -24.66 6.34 -25 6 C-25.66 7.98 -26.32 9.96 -27 12 C-27.66 11.67 -28.32 11.34 -29 11 C-27.76904238 5.70688221 -25.53223501 2.85027224 -21 0 C-14.29623336 -3.72591322 -6.53457612 -4.35638408 0 0 Z " fill="#517D98" transform="translate(138,173)"/>
<path d="M0 0 C13.02859944 -0.56921066 13.02859944 -0.56921066 18 3 C19.875 5.1875 19.875 5.1875 21 7 C20.01 7 19.02 7 18 7 C18 6.34 18 5.68 18 5 C14.37 4.34 10.74 3.68 7 3 C7 3.66 7 4.32 7 5 C5.68 5 4.36 5 3 5 C3 4.34 3 3.68 3 3 C1.68 3 0.36 3 -1 3 C-0.67 2.01 -0.34 1.02 0 0 Z " fill="#4C809E" transform="translate(202,115)"/>
<path d="M0 0 C0.99 0.99 1.98 1.98 3 3 C0.25 7.875 0.25 7.875 -2 9 C-2.72159424 10.64363134 -3.39351421 12.31050386 -4 14 C-6.6486859 10.80331012 -8.93992341 7.60513403 -11 4 C-9.576875 4.2784375 -9.576875 4.2784375 -8.125 4.5625 C-5.10131207 5.28686632 -5.10131207 5.28686632 -3 4 C-3 3.34 -3 2.68 -3 2 C-2.01 2 -1.02 2 0 2 C0 1.34 0 0.68 0 0 Z " fill="#2D7096" transform="translate(228,157)"/>
<path d="M0 0 C0.66 0 1.32 0 2 0 C1.36306741 3.5922998 0.4129328 6.87918241 -0.84765625 10.30078125 C-1.20537109 11.27724609 -1.56308594 12.25371094 -1.93164062 13.25976562 C-2.49141602 14.77086914 -2.49141602 14.77086914 -3.0625 16.3125 C-3.62807617 17.85260742 -3.62807617 17.85260742 -4.20507812 19.42382812 C-5.13346068 21.95043887 -6.06520129 24.47575761 -7 27 C-7.33 27 -7.66 27 -8 27 C-7.67 23.04 -7.34 19.08 -7 15 C-6.34 15 -5.68 15 -5 15 C-4.87625 13.72125 -4.7525 12.4425 -4.625 11.125 C-4.25 7.25 -4.25 7.25 -2 5 C-1.29289322 3.35008418 -0.62056011 1.68437744 0 0 Z " fill="#3A6F90" transform="translate(202,163)"/>
<path d="M0 0 C0.66 0.66 1.32 1.32 2 2 C0.04761147 4.00612399 -1.91137822 6.00492433 -3.875 8 C-4.43058594 8.57234375 -4.98617188 9.1446875 -5.55859375 9.734375 C-7.00134404 11.19450782 -8.4974374 12.60149298 -10 14 C-10.66 14 -11.32 14 -12 14 C-12.33 14.99 -12.66 15.98 -13 17 C-13.33 15.68 -13.66 14.36 -14 13 C-13.01 12.67 -12.02 12.34 -11 12 C-11.33 10.68 -11.66 9.36 -12 8 C-10.02 7.67 -8.04 7.34 -6 7 C-5.67 6.01 -5.34 5.02 -5 4 C-4.34 4 -3.68 4 -3 4 C-3 3.34 -3 2.68 -3 2 C-2.01 2 -1.02 2 0 2 C0 1.34 0 0.68 0 0 Z " fill="#3E7794" transform="translate(262,236)"/>
<path d="M0 0 C1.98 0 3.96 0 6 0 C6 0.99 6 1.98 6 3 C4.02 3.99 4.02 3.99 2 5 C2 5.66 2 6.32 2 7 C1.34 7 0.68 7 0 7 C0 7.66 0 8.32 0 9 C-0.66 9 -1.32 9 -2 9 C-2.66 10.32 -3.32 11.64 -4 13 C-4.33 13 -4.66 13 -5 13 C-5.33 10.69 -5.66 8.38 -6 6 C-5.01 5.67 -4.02 5.34 -3 5 C-3 5.66 -3 6.32 -3 7 C-2.34 7 -1.68 7 -1 7 C-0.67 4.69 -0.34 2.38 0 0 Z " fill="#3A7396" transform="translate(349,273)"/>
<path d="M0 0 C0.66 0 1.32 0 2 0 C2 0.66 2 1.32 2 2 C2.66 2 3.32 2 4 2 C4.33 1.34 4.66 0.68 5 0 C6.32 0.33 7.64 0.66 9 1 C10.17881287 4.68379022 10.21358801 8.15541573 10 12 C9.34 12.66 8.68 13.32 8 14 C7.690625 13.01 7.690625 13.01 7.375 12 C5.75853852 8.47317494 3.63024385 5.71121945 1.2421875 2.671875 C0 1 0 1 0 0 Z " fill="#0D5882" transform="translate(224,171)"/>
<path d="M0 0 C0.66 0.66 1.32 1.32 2 2 C1.7578125 4.3828125 1.7578125 4.3828125 1.125 7.125 C0.92132813 8.03507812 0.71765625 8.94515625 0.5078125 9.8828125 C0.34023437 10.58148438 0.17265625 11.28015625 0 12 C-0.99 12.33 -1.98 12.66 -3 13 C-4.5722859 9.56062459 -5.69741396 6.78596147 -5 3 C-2.5 1.1875 -2.5 1.1875 0 0 Z " fill="#085C8B" transform="translate(219,307)"/>
<path d="M0 0 C2.46278801 1.231394 3.42497687 2.78064923 5 5 C4.65066406 5.54269531 4.30132812 6.08539063 3.94140625 6.64453125 C3.48636719 7.35996094 3.03132812 8.07539063 2.5625 8.8125 C2.11003906 9.52019531 1.65757812 10.22789062 1.19140625 10.95703125 C-0.14086339 13.08134552 -0.14086339 13.08134552 -1 16 C-1.99 16 -2.98 16 -4 16 C-4.39704417 11.50016613 -3.05526355 8.94610602 -1 5 C-0.30092586 2.26427415 -0.30092586 2.26427415 0 0 Z " fill="#0B5A86" transform="translate(226,263)"/>
<path d="M0 0 C0.35191406 0.93585938 0.35191406 0.93585938 0.7109375 1.890625 C2.36823075 4.60255941 3.6141599 4.88975997 6.625 5.75 C7.85089844 6.11351562 7.85089844 6.11351562 9.1015625 6.484375 C9.72804688 6.65453125 10.35453125 6.8246875 11 7 C11 7.33 11 7.66 11 8 C13.64 8.33 16.28 8.66 19 9 C19 9.33 19 9.66 19 10 C10.2155236 10.67285351 3.35251213 8.90167475 -4 4 C-4 3.34 -4 2.68 -4 2 C-4.66 1.67 -5.32 1.34 -6 1 C-4.7934375 1.0309375 -4.7934375 1.0309375 -3.5625 1.0625 C-1.06645115 1.29633621 -1.06645115 1.29633621 0 0 Z " fill="#6690AC" transform="translate(116,304)"/>
<path d="M0 0 C0.33 0.66 0.66 1.32 1 2 C0.57847656 2.47050781 0.15695312 2.94101562 -0.27734375 3.42578125 C-0.82519531 4.04839844 -1.37304688 4.67101562 -1.9375 5.3125 C-2.75541016 6.23482422 -2.75541016 6.23482422 -3.58984375 7.17578125 C-5.20081559 9.05241958 -5.20081559 9.05241958 -6 12 C-6.66 12 -7.32 12 -8 12 C-8 12.99 -8 13.98 -8 15 C-10.046875 15.51171875 -12.09375 16.0234375 -14.140625 16.53515625 C-14.75421875 16.68855469 -15.3678125 16.84195312 -16 17 C-11.01595832 10.96668638 -5.58084697 5.4815829 0 0 Z " fill="#417393" transform="translate(316,289)"/>
<path d="M0 0 C0 3.88934188 -0.63812443 6.90923702 -3 10 C-6.78106468 12.28156553 -10.84651603 14.37767678 -15.31640625 13.59375 C-15.87199219 13.3978125 -16.42757813 13.201875 -17 13 C-16.35933594 12.64808594 -15.71867187 12.29617188 -15.05859375 11.93359375 C-9.18987601 8.58378914 -4.50350872 5.04035082 0 0 Z " fill="#4C7996" transform="translate(289,316)"/>
<path d="M0 0 C1.32 0.66 2.64 1.32 4 2 C3.01 2.495 3.01 2.495 2 3 C1.7525 3.5775 1.505 4.155 1.25 4.75 C-0.55906281 8.00631306 -3.07434092 9.71035376 -6 12 C-6.66 10.35 -7.32 8.7 -8 7 C-7.01 6.34 -6.02 5.68 -5 5 C-4.34 5.33 -3.68 5.66 -3 6 C-2.690625 5.195625 -2.38125 4.39125 -2.0625 3.5625 C-1 1 -1 1 0 0 Z " fill="#427B9D" transform="translate(317,307)"/>
<path d="M0 0 C0.33 0 0.66 0 1 0 C3.29612756 14.59681093 3.29612756 14.59681093 3 22 C2.01 22 1.02 22 0 22 C-2.23497452 14.02058682 -1.7701301 8.09202332 0 0 Z " fill="#377191" transform="translate(104,275)"/>
<path d="M0 0 C0.66 0.33 1.32 0.66 2 1 C1.34 4.3 0.68 7.6 0 11 C-0.99 11 -1.98 11 -3 11 C-3 11.66 -3 12.32 -3 13 C-5.95664519 14.4783226 -8.74229737 14.06032783 -12 14 C-11.67 13.34 -11.34 12.68 -11 12 C-9.02 12 -7.04 12 -5 12 C-4.01 9.03 -3.02 6.06 -2 3 C-1.34 3 -0.68 3 0 3 C0 2.01 0 1.02 0 0 Z " fill="#346E8E" transform="translate(185,183)"/>
<path d="M0 0 C-2.75 4.875 -2.75 4.875 -5 6 C-5 5.34 -5 4.68 -5 4 C-8.3 4 -11.6 4 -15 4 C-15 3.34 -15 2.68 -15 2 C-15.66 2 -16.32 2 -17 2 C-16.67 1.34 -16.34 0.68 -16 0 C-14.7315625 0.309375 -14.7315625 0.309375 -13.4375 0.625 C-8.46551876 1.16739795 -4.71702393 -1.57234131 0 0 Z " fill="#265C82" transform="translate(163,264)"/>
<path d="M0 0 C4.18411503 3.06835102 5.05798611 6.49622012 5.8828125 11.39453125 C6.07358242 15.63598242 4.92180181 18.22266541 3 22 C2.03330633 23.03223222 1.04017944 24.04186288 0 25 C-0.20086443 21.28400809 -0.1519437 20.22791555 2 17 C2.66 17 3.32 17 4 17 C3.52129086 14.91656149 3.04201531 12.83325311 2.5625 10.75 C2.29566406 9.58984375 2.02882812 8.4296875 1.75390625 7.234375 C1.19032 4.81650239 0.61330049 2.40556696 0 0 Z " fill="#56819A" transform="translate(192,199)"/>
<path d="M0 0 C0.66 0 1.32 0 2 0 C2.21278058 4.46839215 1.59138085 7.82262526 0 12 C-0.66 12 -1.32 12 -2 12 C-2.268125 12.639375 -2.53625 13.27875 -2.8125 13.9375 C-4 16 -4 16 -7 17 C-7.33 15.68 -7.66 14.36 -8 13 C-6.35 12.67 -4.7 12.34 -3 12 C-2.86722656 11.30132812 -2.73445312 10.60265625 -2.59765625 9.8828125 C-2.42105469 8.97273438 -2.24445313 8.06265625 -2.0625 7.125 C-1.88847656 6.22007812 -1.71445313 5.31515625 -1.53515625 4.3828125 C-1 2 -1 2 0 0 Z " fill="#5686A4" transform="translate(211,343)"/>
<path d="M0 0 C0.33 0.66 0.66 1.32 1 2 C1.66 2 2.32 2 3 2 C5.32590854 5.63423209 5.16265833 8.77088331 5 13 C8.3 13.66 11.6 14.32 15 15 C15 15.33 15 15.66 15 16 C7.89940828 16.35502959 7.89940828 16.35502959 4.625 15.0625 C2.05529025 11.80094532 1.64299941 8.03566737 1 4 C0.01 4 -0.98 4 -2 4 C-1 1 -1 1 0 0 Z " fill="#44718E" transform="translate(143,177)"/>
<path d="M0 0 C0.33 0 0.66 0 1 0 C1 2.97 1 5.94 1 9 C-0.65 8.67 -2.3 8.34 -4 8 C-4.66 8.99 -5.32 9.98 -6 11 C-6 8.69 -6 6.38 -6 4 C-2.25 2 -2.25 2 0 2 C0 1.34 0 0.68 0 0 Z " fill="#085A88" transform="translate(193,237)"/>
<path d="M0 0 C0.33 1.32 0.66 2.64 1 4 C0.01 4.66 -0.98 5.32 -2 6 C-2.309375 6.825 -2.61875 7.65 -2.9375 8.5 C-4 11 -4 11 -6.125 12.3125 C-7.053125 12.6528125 -7.053125 12.6528125 -8 13 C-8 12.34 -8 11.68 -8 11 C-8.66 10.67 -9.32 10.34 -10 10 C-6.7 6.7 -3.4 3.4 0 0 Z " fill="#427391" transform="translate(314,168)"/>
<path d="M0 0 C0.95261719 0.09925781 1.90523438 0.19851562 2.88671875 0.30078125 C6.14398304 0.68644878 9.38399684 1.12084395 12.625 1.625 C12.625 2.285 12.625 2.945 12.625 3.625 C9.72888456 3.48365273 6.8331919 3.3370847 3.9375 3.1875 C3.12087891 3.14818359 2.30425781 3.10886719 1.46289062 3.06835938 C-2.57155811 2.85601997 -6.43247309 2.58052078 -10.375 1.625 C-10.375 1.295 -10.375 0.965 -10.375 0.625 C-6.73395893 -0.25568502 -3.71921135 -0.39430034 0 0 Z " fill="#45708F" transform="translate(359.375,147.375)"/>
<path d="M0 0 C0.66 0.33 1.32 0.66 2 1 C2.36625971 5.51720311 2.36625971 5.51720311 0.625 7.8125 C-1 9 -1 9 -3 9 C-3 9.66 -3 10.32 -3 11 C-3.66 10.67 -4.32 10.34 -5 10 C-5.3125 7.8125 -5.3125 7.8125 -5 5 C-2.5 2.1875 -2.5 2.1875 0 0 Z " fill="#327195" transform="translate(298,325)"/>
<path d="M0 0 C0.66 0.33 1.32 0.66 2 1 C2 1.99 2 2.98 2 4 C2.66 4.33 3.32 4.66 4 5 C2.02 5.99 2.02 5.99 0 7 C0 7.66 0 8.32 0 9 C-0.66 9 -1.32 9 -2 9 C-2.33 9.99 -2.66 10.98 -3 12 C-3.66 11.01 -4.32 10.02 -5 9 C-4.125 6.3125 -4.125 6.3125 -3 4 C-2.34 4 -1.68 4 -1 4 C-0.67 2.68 -0.34 1.36 0 0 Z " fill="#336D93" transform="translate(364,258)"/>
<path d="M0 0 C0.33 0.99 0.66 1.98 1 3 C1.33 3.66 1.66 4.32 2 5 C2.99 5.33 3.98 5.66 5 6 C5.33 6.99 5.66 7.98 6 9 C6.66 9 7.32 9 8 9 C7.34 10.32 6.68 11.64 6 13 C4.49105554 11.57189185 2.99307655 10.13218981 1.5 8.6875 C0.6646875 7.88699219 -0.170625 7.08648437 -1.03125 6.26171875 C-3 4 -3 4 -3 1 C-2.01 0.67 -1.02 0.34 0 0 Z " fill="#4B7E9B" transform="translate(319,256)"/>
<path d="M0 0 C0.33 0.99 0.66 1.98 1 3 C-0.60584623 5.15642208 -2.17703849 7.04938012 -4 9 C-4.66 9.763125 -5.32 10.52625 -6 11.3125 C-8.33079116 13.27910504 -10.0027787 13.66697541 -13 14 C-8.88380164 9.08064098 -4.59589638 4.47352044 0 0 Z " fill="#547B99" transform="translate(270,212)"/>
<path d="M0 0 C0.99 1.32 1.98 2.64 3 4 C2.34 5.32 1.68 6.64 1 8 C0.34 7.67 -0.32 7.34 -1 7 C-1 6.34 -1 5.68 -1 5 C-4.12197478 6.3089572 -4.12197478 6.3089572 -6 9 C-6.66 9 -7.32 9 -8 9 C-7.67 7.35 -7.34 5.7 -7 4 C-6.34 4 -5.68 4 -5 4 C-5 3.34 -5 2.68 -5 2 C-3.35 2 -1.7 2 0 2 C0 1.34 0 0.68 0 0 Z " fill="#2A6C90" transform="translate(189,248)"/>
<path d="M0 0 C0.66 0.66 1.32 1.32 2 2 C-0.77170395 1.88613541 -3.54178046 1.75939222 -6.3125 1.625 C-7.09818359 1.5940625 -7.88386719 1.563125 -8.69335938 1.53125 C-9.45068359 1.49257812 -10.20800781 1.45390625 -10.98828125 1.4140625 C-11.68477783 1.3826416 -12.38127441 1.3512207 -13.09887695 1.31884766 C-15 1 -15 1 -18 -1 C-11.7728968 -2.38380071 -6.13600632 -1.74006149 0 0 Z " fill="#648FA9" transform="translate(258,175)"/>
<path d="M0 0 C0.66 0 1.32 0 2 0 C2.33 2.64 2.66 5.28 3 8 C0.03 7.505 0.03 7.505 -3 7 C-3.33 5.35 -3.66 3.7 -4 2 C-2.68 2 -1.36 2 0 2 C0 1.34 0 0.68 0 0 Z " fill="#206289" transform="translate(236,202)"/>
<path d="M0 0 C0 0.33 0 0.66 0 1 C-0.59014893 1.14622803 -1.18029785 1.29245605 -1.78833008 1.44311523 C-4.46336162 2.10667467 -7.13793405 2.77206653 -9.8125 3.4375 C-10.74126953 3.66759766 -11.67003906 3.89769531 -12.62695312 4.13476562 C-13.9659668 4.46831055 -13.9659668 4.46831055 -15.33203125 4.80859375 C-16.56530151 5.11494751 -16.56530151 5.11494751 -17.82348633 5.42749023 C-19.56752397 5.88624158 -21.28917912 6.42972637 -23 7 C-23 6.34 -23 5.68 -23 5 C-22.34 5 -21.68 5 -21 5 C-21 4.34 -21 3.68 -21 3 C-20.08476562 2.86722656 -19.16953125 2.73445313 -18.2265625 2.59765625 C-17.03804687 2.42105469 -15.84953125 2.24445313 -14.625 2.0625 C-13.44164062 1.88847656 -12.25828125 1.71445312 -11.0390625 1.53515625 C-2.06610169 -0.04491525 -2.06610169 -0.04491525 0 0 Z " fill="#6B93AC" transform="translate(179,270)"/>
<path d="M0 0 C1.30609191 3.91827573 0.34814961 5.25261472 -1.25 9 C-1.68828125 10.051875 -2.1265625 11.10375 -2.578125 12.1875 C-3.84557331 14.69454062 -4.88259785 16.20643583 -7 18 C-7 16.35 -7 14.7 -7 13 C-6.34 13 -5.68 13 -5 13 C-4.9175 12.154375 -4.835 11.30875 -4.75 10.4375 C-3.84266147 6.27886509 -2.23458727 3.60417301 0 0 Z " fill="#517D98" transform="translate(406,212)"/>
<path d="M0 0 C0.33 0.99 0.66 1.98 1 3 C1.66 3 2.32 3 3 3 C5.60018816 6.90028225 5.15085514 10.47434569 5 15 C4.67 15 4.34 15 4 15 C4 12.69 4 10.38 4 8 C0.7 7.34 -2.6 6.68 -6 6 C-2 5 -2 5 1 6 C1 5.34 1 4.68 1 4 C0.34 4 -0.32 4 -1 4 C-0.67 2.68 -0.34 1.36 0 0 Z " fill="#4A7F9B" transform="translate(161,200)"/>
<path d="M0 0 C-0.6875 1.9375 -0.6875 1.9375 -2 4 C-4.375 4.9375 -4.375 4.9375 -7 5 C-9.3125 3.5625 -9.3125 3.5625 -11 2 C-6.89657963 -0.38570952 -4.61380251 -1.49270081 0 0 Z " fill="#2F6E92" transform="translate(341,152)"/>
<path d="M0 0 C0.99 0 1.98 0 3 0 C2.43040847 3.62613199 1.07625466 5.25517741 -1.5625 7.75 C-2.52349609 8.67039062 -2.52349609 8.67039062 -3.50390625 9.609375 C-3.99761719 10.06828125 -4.49132812 10.5271875 -5 11 C-5.66 9.68 -6.32 8.36 -7 7 C-5.68 7 -4.36 7 -3 7 C-3 6.01 -3 5.02 -3 4 C-2.34 4 -1.68 4 -1 4 C-0.67 2.68 -0.34 1.36 0 0 Z " fill="#5984A0" transform="translate(241,255)"/>
<path d="M0 0 C1.41377341 2.63904371 2.37240135 5.07120629 3 8 C3.66 8 4.32 8 5 8 C4.67 9.32 4.34 10.64 4 12 C1.36 9.36 -1.28 6.72 -4 4 C-2.68 3.67 -1.36 3.34 0 3 C0 2.01 0 1.02 0 0 Z " fill="#4E819F" transform="translate(301,237)"/>
<path d="M0 0 C0.99 0.33 1.98 0.66 3 1 C2.04578192 2.14926266 1.08647955 3.29430541 0.125 4.4375 C-0.40867187 5.07558594 -0.94234375 5.71367187 -1.4921875 6.37109375 C-3 8 -3 8 -5 9 C-5.33 6.69 -5.66 4.38 -6 2 C-4.02 2 -2.04 2 0 2 C0 1.34 0 0.68 0 0 Z " fill="#3F7396" transform="translate(269,228)"/>
<path d="M0 0 C2.97 0.495 2.97 0.495 6 1 C6.33 2.32 6.66 3.64 7 5 C6.01 5 5.02 5 4 5 C3.67 5.66 3.34 6.32 3 7 C1.35 6.01 -0.3 5.02 -2 4 C-1.34 2.68 -0.68 1.36 0 0 Z " fill="#0A5B87" transform="translate(219,157)"/>
<path d="M0 0 C8.91 1.485 8.91 1.485 18 3 C18 3.33 18 3.66 18 4 C11.00727785 5.18933594 6.46738512 4.99415978 0 2 C0 1.34 0 0.68 0 0 Z " fill="#648CA6" transform="translate(186,357)"/>
<path d="M0 0 C7.48291572 6.15034169 7.48291572 6.15034169 10 10 C8.35 9.67 6.7 9.34 5 9 C5 8.34 5 7.68 5 7 C4.01 7 3.02 7 2 7 C2 5.68 2 4.36 2 3 C0.68 3.33 -0.64 3.66 -2 4 C-2 3.34 -2 2.68 -2 2 C-1.34 2 -0.68 2 0 2 C0 1.34 0 0.68 0 0 Z " fill="#4E819F" transform="translate(171,310)"/>
<path d="M0 0 C0 0.66 0 1.32 0 2 C0.99 2.33 1.98 2.66 3 3 C2.67 4.65 2.34 6.3 2 8 C0 7 -2 6 -4 5 C-4 3.68 -4 2.36 -4 1 C-2 0 -2 0 0 0 Z " fill="#085D8D" transform="translate(232,165)"/>
<path d="M0 0 C0.33 0.66 0.66 1.32 1 2 C0.00102287 4.99693138 -0.65130253 6.02709413 -3 8 C-3.66 8 -4.32 8 -5 8 C-5 8.66 -5 9.32 -5 10 C-6.65 10.33 -8.3 10.66 -10 11 C-6.79239749 7.19364503 -3.59253891 3.45436433 0 0 Z " fill="#517D95" transform="translate(232,250)"/>
<path d="M0 0 C2.10827055 3.16240582 2.33817465 4.50657469 2.625 8.1875 C2.69976562 9.08855469 2.77453125 9.98960937 2.8515625 10.91796875 C2.90054687 11.60503906 2.94953125 12.29210937 3 13 C1.68 12.34 0.36 11.68 -1 11 C-0.67 10.34 -0.34 9.68 0 9 C-0.13548999 7.0432081 -0.13548999 7.0432081 -0.5 4.9375 C-0.665 3.638125 -0.83 2.33875 -1 1 C-0.67 0.67 -0.34 0.34 0 0 Z " fill="#346D8F" transform="translate(405,181)"/>
<path d="M0 0 C0.66 0 1.32 0 2 0 C1.835 0.886875 1.67 1.77375 1.5 2.6875 C1.07004243 5.53596892 0.91558965 8.13004802 1 11 C0.01 11 -0.98 11 -2 11 C-3.6875 9 -3.6875 9 -5 7 C-4.34 7 -3.68 7 -3 7 C-2.87625 6.401875 -2.7525 5.80375 -2.625 5.1875 C-2 3 -2 3 0 0 Z " fill="#0F5983" transform="translate(241,242)"/>
<path d="M0 0 C0.33 0.66 0.66 1.32 1 2 C0.67 2.99 0.34 3.98 0 5 C-0.66 5 -1.32 5 -2 5 C-2 5.66 -2 6.32 -2 7 C-3.76957906 9.3283935 -4.81583516 9.95288806 -7.6875 10.6875 C-8.8321875 10.8421875 -8.8321875 10.8421875 -10 11 C-6.79239749 7.19364503 -3.59253891 3.45436433 0 0 Z " fill="#537D98" transform="translate(288,194)"/>
<path d="M0 0 C0.66 0 1.32 0 2 0 C2.66 4.29 3.32 8.58 4 13 C3.01 13 2.02 13 1 13 C-0.10228696 8.59085217 -0.07654536 4.51617599 0 0 Z " fill="#447492" transform="translate(228,190)"/>
<path d="M0 0 C0.99 0.33 1.98 0.66 3 1 C3 1.99 3 2.98 3 4 C2.34 4 1.68 4 1 4 C1 4.66 1 5.32 1 6 C0.34 6 -0.32 6 -1 6 C-1 6.66 -1 7.32 -1 8 C-1.66 8 -2.32 8 -3 8 C-3.33 8.66 -3.66 9.32 -4 10 C-4.75 8.25 -4.75 8.25 -5 6 C-3.125 3.875 -3.125 3.875 -1 2 C-0.67 1.34 -0.34 0.68 0 0 Z " fill="#417794" transform="translate(216,330)"/>
<path d="M0 0 C0 0.99 0 1.98 0 3 C-0.99 3.33 -1.98 3.66 -3 4 C-3.33 4.66 -3.66 5.32 -4 6 C-6.64 6 -9.28 6 -12 6 C-10.68 5.67 -9.36 5.34 -8 5 C-8 4.34 -8 3.68 -8 3 C-5.09451118 0.95830515 -3.59857954 0 0 0 Z " fill="#0F547A" transform="translate(218,149)"/>
<path d="M0 0 C3.3 0.66 6.6 1.32 10 2 C10 2.33 10 2.66 10 3 C3.62641289 3.96205088 -2.55929529 4.10655578 -9 4 C-9 3.67 -9 3.34 -9 3 C-5.92382812 2.70703125 -5.92382812 2.70703125 -2.84765625 2.4140625 C-2.23792969 2.27742188 -1.62820313 2.14078125 -1 2 C-0.67 1.34 -0.34 0.68 0 0 Z " fill="#789FB5" transform="translate(265,343)"/>
<path d="M0 0 C0.99 0 1.98 0 3 0 C3 0.66 3 1.32 3 2 C4.32 2 5.64 2 7 2 C7 1.34 7 0.68 7 0 C7.99 0 8.98 0 10 0 C9.67 0.99 9.34 1.98 9 3 C8.01 3 7.02 3 6 3 C6 3.66 6 4.32 6 5 C3.69 5.33 1.38 5.66 -1 6 C-0.505 5.54625 -0.01 5.0925 0.5 4.625 C2.22609337 3.12364481 2.22609337 3.12364481 2 1 C1.34 0.67 0.68 0.34 0 0 Z " fill="#3D7295" transform="translate(136,307)"/>
<path d="M0 0 C2.625 0.9375 2.625 0.9375 5 2 C3.625 4 3.625 4 2 6 C1.34 6 0.68 6 0 6 C-0.33 6.66 -0.66 7.32 -1 8 C-1.33 5.69 -1.66 3.38 -2 1 C-1.34 0.67 -0.68 0.34 0 0 Z " fill="#3F7899" transform="translate(323,300)"/>
<path d="M0 0 C4.51478398 0.53115106 7.34666857 2.36620292 11 5 C10.01 5.495 10.01 5.495 9 6 C8.67 6.66 8.34 7.32 8 8 C7.67 7.34 7.34 6.68 7 6 C6.154375 5.505 5.30875 5.01 4.4375 4.5 C3.633125 4.005 2.82875 3.51 2 3 C2 2.34 2 1.68 2 1 C1.34 0.67 0.68 0.34 0 0 Z " fill="#527E9A" transform="translate(196,246)"/>
<path d="M0 0 C0.66 0.33 1.32 0.66 2 1 C1.34 2.98 0.68 4.96 0 7 C-1.32 7 -2.64 7 -4 7 C-4 5.68 -4 4.36 -4 3 C-2 1.25 -2 1.25 0 0 Z " fill="#0C5981" transform="translate(185,225)"/>
<path d="M0 0 C0.66 0 1.32 0 2 0 C2 0.66 2 1.32 2 2 C2.66 2 3.32 2 4 2 C4.33 1.34 4.66 0.68 5 0 C5.99 2.64 6.98 5.28 8 8 C7.01 8 6.02 8 5 8 C3.61328125 6.50390625 3.61328125 6.50390625 2.3125 4.5625 C1.87550781 3.92441406 1.43851563 3.28632813 0.98828125 2.62890625 C0 1 0 1 0 0 Z " fill="#5284A1" transform="translate(224,171)"/>
<path d="M0 0 C0.99 0 1.98 0 3 0 C4.5 2.25 4.5 2.25 6 5 C6.98244845 6.34631825 7.97676564 7.68441297 9 9 C6.35175278 8.64212875 4.44464124 8.31760089 2.25 6.75 C0.68239911 4.55535876 0.35787125 2.64824722 0 0 Z " fill="#447896" transform="translate(154,293)"/>
<path d="M0 0 C1.43931117 0.45261358 2.87638999 0.91232979 4.3125 1.375 C5.11300781 1.63023437 5.91351563 1.88546875 6.73828125 2.1484375 C9 3 9 3 12 5 C11.34 5 10.68 5 10 5 C10 5.66 10 6.32 10 7 C9.01 6.67 8.02 6.34 7 6 C7 5.34 7 4.68 7 4 C4.69 3.67 2.38 3.34 0 3 C0 2.01 0 1.02 0 0 Z " fill="#3B6C8A" transform="translate(372,150)"/>
<path d="M0 0 C1.20628008 2.33214148 2.1654738 4.49642139 3 7 C-1.75 5.125 -1.75 5.125 -4 4 C-4 3.34 -4 2.68 -4 2 C-4.66 1.67 -5.32 1.34 -6 1 C-4.7934375 1.0309375 -4.7934375 1.0309375 -3.5625 1.0625 C-1.06645115 1.29633621 -1.06645115 1.29633621 0 0 Z " fill="#4E7C99" transform="translate(116,304)"/>
<path d="M0 0 C0.99 0.33 1.98 0.66 3 1 C3 1.99 3 2.98 3 4 C1.35443434 5.03435556 -0.3170608 6.02763513 -2 7 C-3.7041054 8.62836738 -5.38025441 10.28769752 -7 12 C-6.49394035 7.61414969 -3.79780785 5.21747902 -1 2 C-0.67 1.34 -0.34 0.68 0 0 Z " fill="#0E5981" transform="translate(317,289)"/>
<path d="M0 0 C0.33 1.32 0.66 2.64 1 4 C0.34 4 -0.32 4 -1 4 C-1 4.99 -1 5.98 -1 7 C-1.99 7 -2.98 7 -4 7 C-4.33 7.66 -4.66 8.32 -5 9 C-5.66 8.34 -6.32 7.68 -7 7 C-4.69 4.69 -2.38 2.38 0 0 Z " fill="#4B7997" transform="translate(303,179)"/>
<path d="M0 0 C1.33617352 0.97528737 2.6688751 1.95533319 4 2.9375 C4.7425 3.48277344 5.485 4.02804687 6.25 4.58984375 C6.8275 5.05519531 7.405 5.52054687 8 6 C8 6.33 8 6.66 8 7 C6.02 7 4.04 7 2 7 C1.67 6.01 1.34 5.02 1 4 C0.34 3.67 -0.32 3.34 -1 3 C-0.67 2.01 -0.34 1.02 0 0 Z " fill="#497896" transform="translate(230,319)"/>
<path d="M0 0 C0.99 0 1.98 0 3 0 C2.67 4.29 2.34 8.58 2 13 C1.67 13 1.34 13 1 13 C0.67 8.71 0.34 4.42 0 0 Z " fill="#688CA2" transform="translate(208,293)"/>
<path d="M0 0 C0.33 0 0.66 0 1 0 C1 4.29 1 8.58 1 13 C0.01 13 -0.98 13 -2 13 C-1.48041715 8.62065881 -0.94324258 4.31196609 0 0 Z " fill="#537F9C" transform="translate(104,275)"/>
<path d="M0 0 C1.32 0.33 2.64 0.66 4 1 C4 1.99 4 2.98 4 4 C6.97 4.495 6.97 4.495 10 5 C9.01 5.66 8.02 6.32 7 7 C3.93369336 6.1025444 2.26961192 5.26961192 0 3 C0 2.01 0 1.02 0 0 Z " fill="#467692" transform="translate(168,219)"/>
<path d="M0 0 C0.66 0 1.32 0 2 0 C2.36630156 3.93774177 2.30233203 5.56539771 0 8.875 C-0.66 9.57625 -1.32 10.2775 -2 11 C-1.85892253 9.54119891 -1.71197585 8.08296449 -1.5625 6.625 C-1.48128906 5.81289063 -1.40007812 5.00078125 -1.31640625 4.1640625 C-1 2 -1 2 0 0 Z " fill="#3F7196" transform="translate(211,343)"/>
<path d="M0 0 C0.33 1.32 0.66 2.64 1 4 C-1 6 -1 6 -4 8 C-4.99 7.67 -5.98 7.34 -7 7 C-4.69 4.69 -2.38 2.38 0 0 Z " fill="#527E9B" transform="translate(299,306)"/>
<path d="M0 0 C1.65 0 3.3 0 5 0 C5 0.99 5 1.98 5 3 C5.66 3 6.32 3 7 3 C7.33 4.65 7.66 6.3 8 8 C6.85073734 7.04578192 5.70569459 6.08647955 4.5625 5.125 C3.92441406 4.59132813 3.28632813 4.05765625 2.62890625 3.5078125 C1 2 1 2 0 0 Z " fill="#6A95AC" transform="translate(153,309)"/>
<path d="M0 0 C0.99 0 1.98 0 3 0 C3 0.66 3 1.32 3 2 C3.66 2.33 4.32 2.66 5 3 C4.01 3.33 3.02 3.66 2 4 C2 4.66 2 5.32 2 6 C1.34 6 0.68 6 0 6 C0 5.34 0 4.68 0 4 C-0.66 4 -1.32 4 -2 4 C-1.34 2.68 -0.68 1.36 0 0 Z " fill="#317098" transform="translate(377,246)"/>
<path d="M0 0 C0.99 0 1.98 0 3 0 C2.65120368 3.25543229 1.97866739 4.01873107 -0.5625 6.25 C-1.366875 6.8275 -2.17125 7.405 -3 8 C-3.33 6.68 -3.66 5.36 -4 4 C-2.68 4 -1.36 4 0 4 C-0.33 3.01 -0.66 2.02 -1 1 C-0.67 0.67 -0.34 0.34 0 0 Z " fill="#5386A0" transform="translate(385,240)"/>
<path d="M0 0 C0.66 0 1.32 0 2 0 C1.32829194 3.8063457 0.27253436 7.35206816 -1 11 C-1.66 10.34 -2.32 9.68 -3 9 C-2.56237193 5.82719649 -1.22638495 2.94332389 0 0 Z " fill="#54819E" transform="translate(202,163)"/>
<path d="M0 0 C2.97 0.495 2.97 0.495 6 1 C5.67 2.32 5.34 3.64 5 5 C4.01 5 3.02 5 2 5 C2 4.34 2 3.68 2 3 C1.34 3 0.68 3 0 3 C0 2.01 0 1.02 0 0 Z " fill="#2F6B8C" transform="translate(106,298)"/>
<path d="M0 0 C0.33 0.66 0.66 1.32 1 2 C-0.98 4.31 -2.96 6.62 -5 9 C-5.99 8.67 -6.98 8.34 -8 8 C-5.36 5.36 -2.72 2.72 0 0 Z " fill="#5E85A0" transform="translate(316,289)"/>
<path d="M0 0 C0.66 0 1.32 0 2 0 C1.67 1.32 1.34 2.64 1 4 C0.34 4 -0.32 4 -1 4 C-1.66 5.65 -2.32 7.3 -3 9 C-3.99 9 -4.98 9 -6 9 C-5.34 8.67 -4.68 8.34 -4 8 C-3.855625 7.401875 -3.71125 6.80375 -3.5625 6.1875 C-2.88461374 3.55127564 -1.80361334 2.02004694 0 0 Z " fill="#4B7993" transform="translate(231,267)"/>
<path d="M0 0 C-2.75 4.875 -2.75 4.875 -5 6 C-5.185625 5.071875 -5.185625 5.071875 -5.375 4.125 C-5.87197356 1.80879168 -5.87197356 1.80879168 -8 0 C-4.71303767 -0.79953138 -3.28976808 -1.09658936 0 0 Z " fill="#427F9E" transform="translate(163,264)"/>
<path d="M0 0 C-2.06756277 2.7972908 -3.14440371 3.02692273 -6.6875 3.6875 C-7.780625 3.790625 -8.87375 3.89375 -10 4 C-10 3.01 -10 2.02 -10 1 C-6.59437148 0.22157062 -3.49234244 -0.09978121 0 0 Z " fill="#507C9A" transform="translate(261,210)"/>
<path d="M0 0 C0.66 0.33 1.32 0.66 2 1 C1.67 1.99 1.34 2.98 1 4 C0.34 4 -0.32 4 -1 4 C-1.33 4.99 -1.66 5.98 -2 7 C-3.65 7.33 -5.3 7.66 -7 8 C-5.38405168 5.95880212 -3.7143618 3.95927063 -2 2 C-1.34 2 -0.68 2 0 2 C0 1.34 0 0.68 0 0 Z " fill="#578298" transform="translate(324,158)"/>
<path d="M0 0 C0.66 0 1.32 0 2 0 C1.6875 2.375 1.6875 2.375 1 5 C0.01 5.66 -0.98 6.32 -2 7 C-2.66 6.34 -3.32 5.68 -4 5 C-2.71937515 3.2925002 -1.38232443 1.62626404 0 0 Z " fill="#417396" transform="translate(195,119)"/>
<path d="M0 0 C1.98 1.65 3.96 3.3 6 5 C5.01 5.495 5.01 5.495 4 6 C4 6.66 4 7.32 4 8 C2 7 2 7 1 4 C-0.32 4 -1.64 4 -3 4 C-2.67 3.01 -2.34 2.02 -2 1 C-1.34 0.67 -0.68 0.34 0 0 Z " fill="#5288A8" transform="translate(185,324)"/>
<path d="M0 0 C2.97 0.495 2.97 0.495 6 1 C6 3 6 3 4.5 4.625 C4.005 5.07875 3.51 5.5325 3 6 C1.68 5.34 0.36 4.68 -1 4 C-0.67 2.68 -0.34 1.36 0 0 Z " fill="#0E5D8F" transform="translate(253,237)"/>
<path d="M0 0 C2.0625 0.4375 2.0625 0.4375 4 1 C1.25 5.875 1.25 5.875 -1 7 C-1.04254356 5.00045254 -1.04080783 2.99958364 -1 1 C-0.67 0.67 -0.34 0.34 0 0 Z " fill="#437695" transform="translate(262,203)"/>
<path d="M0 0 C0 3.11227195 -0.45627049 5.94152152 -1 9 C-1.66 9 -2.32 9 -3 9 C-3.33 8.34 -3.66 7.68 -4 7 C-4.66 6.67 -5.32 6.34 -6 6 C-4.02 4.02 -2.04 2.04 0 0 Z " fill="#4B7B98" transform="translate(295,187)"/>
<path d="M0 0 C1.65 0 3.3 0 5 0 C2.74259377 2.33524782 0.7194239 4.18705073 -2 6 C-2.99 5.67 -3.98 5.34 -5 5 C-4.67 4.34 -4.34 3.68 -4 3 C-2.68 3 -1.36 3 0 3 C0 2.01 0 1.02 0 0 Z " fill="#6991A9" transform="translate(288,336)"/>
<path d="M0 0 C2.475 0.495 2.475 0.495 5 1 C5 1.66 5 2.32 5 3 C5.66 3 6.32 3 7 3 C7.33 4.65 7.66 6.3 8 8 C6 6.625 6 6.625 4 5 C4 4.34 4 3.68 4 3 C3.34 3 2.68 3 2 3 C2 2.34 2 1.68 2 1 C1.34 0.67 0.68 0.34 0 0 Z " fill="#5F8EA5" transform="translate(164,320)"/>
<path d="M0 0 C0.99 0.33 1.98 0.66 3 1 C2.625 3.4375 2.625 3.4375 2 6 C1.01 6.495 1.01 6.495 0 7 C-0.66 5.35 -1.32 3.7 -2 2 C-1.34 1.34 -0.68 0.68 0 0 Z " fill="#367499" transform="translate(311,312)"/>
<path d="M0 0 C1.42944945 2.35438733 2.08661261 3.48032433 1.625 6.25 C1.41875 6.8275 1.2125 7.405 1 8 C0.01 8 -0.98 8 -2 8 C-1.125 1.125 -1.125 1.125 0 0 Z " fill="#2D678C" transform="translate(107,270)"/>
<path d="M0 0 C0.33 0.99 0.66 1.98 1 3 C-0.32 4.32 -1.64 5.64 -3 7 C-3.99 6.67 -4.98 6.34 -6 6 C-4.02 4.02 -2.04 2.04 0 0 Z " fill="#416F8D" transform="translate(213,322)"/>
<path d="M0 0 C0.33 0.99 0.66 1.98 1 3 C1.66 3 2.32 3 3 3 C5.125 7.625 5.125 7.625 4 11 C0 4.5 0 4.5 0 0 Z " fill="#6088A2" transform="translate(211,310)"/>
<path d="M0 0 C1.98 1.65 3.96 3.3 6 5 C3 6 3 6 0 5 C0 4.34 0 3.68 0 3 C-0.66 2.67 -1.32 2.34 -2 2 C-1.34 2 -0.68 2 0 2 C0 1.34 0 0.68 0 0 Z " fill="#3D7496" transform="translate(163,302)"/>
<path d="M0 0 C0.66 0.66 1.32 1.32 2 2 C-1.465 4.97 -1.465 4.97 -5 8 C-5 6.68 -5 5.36 -5 4 C-4.34 4 -3.68 4 -3 4 C-3 3.34 -3 2.68 -3 2 C-2.01 2 -1.02 2 0 2 C0 1.34 0 0.68 0 0 Z " fill="#608AA5" transform="translate(262,236)"/>
<path d="M0 0 C0.33 0.66 0.66 1.32 1 2 C1.66 2.33 2.32 2.66 3 3 C0.03 5.475 0.03 5.475 -3 8 C-2.67 6.02 -2.34 4.04 -2 2 C-1.34 2 -0.68 2 0 2 C0 1.34 0 0.68 0 0 Z " fill="#50819E" transform="translate(275,221)"/>
<path d="M0 0 C0 0.99 0 1.98 0 3 C-3.3 2.67 -6.6 2.34 -10 2 C-10 1.67 -10 1.34 -10 1 C-6.59437148 0.22157062 -3.49234244 -0.09978121 0 0 Z " fill="#577E97" transform="translate(359,147)"/>
<path d="M0 0 C-2.5654594 2.5654594 -4.47686668 2.54046087 -8 3 C-8 2.01 -8 1.02 -8 0 C-4.71023192 -1.09658936 -3.28696233 -0.79953138 0 0 Z " fill="#507F9D" transform="translate(283,342)"/>
<path d="M0 0 C6.75 0.75 6.75 0.75 9 3 C8.67 3.66 8.34 4.32 8 5 C4.62496331 3.8141763 2.35277269 2.72426311 0 0 Z " fill="#618DA8" transform="translate(227,335)"/>
<path d="M0 0 C0.66 0.66 1.32 1.32 2 2 C1.8125 4 1.8125 4 1 6 C0.01 6.66 -0.98 7.32 -2 8 C-2.20086443 4.28400809 -2.1519437 3.22791555 0 0 Z " fill="#47809D" transform="translate(302,322)"/>
<path d="M0 0 C0 3.16880694 -0.2058242 4.43689172 -2 7 C-4.625 7.75 -4.625 7.75 -7 8 C-6.02133662 6.85373678 -5.04205413 5.70800212 -4.0625 4.5625 C-3.51722656 3.92441406 -2.97195312 3.28632813 -2.41015625 2.62890625 C-1.63204305 1.73008851 -0.84063472 0.84063472 0 0 Z " fill="#5F869F" transform="translate(240,242)"/>
<path d="M0 0 C0.33 0.66 0.66 1.32 1 2 C1.66 2 2.32 2 3 2 C3.66 3.98 4.32 5.96 5 8 C4.01 8 3.02 8 2 8 C1.34 6.68 0.68 5.36 0 4 C-0.66 4 -1.32 4 -2 4 C-1 1 -1 1 0 0 Z " fill="#58849E" transform="translate(143,177)"/>
<path d="M0 0 C1.5 1.375 1.5 1.375 3 3 C3 3.66 3 4.32 3 5 C3.66 5 4.32 5 5 5 C5.33 6.32 5.66 7.64 6 9 C5.01 9 4.02 9 3 9 C3 8.34 3 7.68 3 7 C2.2575 6.319375 2.2575 6.319375 1.5 5.625 C0 4 0 4 0 0 Z " fill="#5683A2" transform="translate(231,161)"/>
<path d="M0 0 C0.99 0.66 1.98 1.32 3 2 C2.34 2.66 1.68 3.32 1 4 C1 4.66 1 5.32 1 6 C-0.32 6 -1.64 6 -3 6 C-3 4.68 -3 3.36 -3 2 C-2.01 2 -1.02 2 0 2 C0 1.34 0 0.68 0 0 Z " fill="#065E8F" transform="translate(218,150)"/>
<path d="M0 0 C1.98 0.66 3.96 1.32 6 2 C6 2.99 6 3.98 6 5 C4.68 5 3.36 5 2 5 C1.34 3.35 0.68 1.7 0 0 Z " fill="#1E6088" transform="translate(165,307)"/>
<path d="M0 0 C0.99 0.33 1.98 0.66 3 1 C1.66666667 3.66666667 0.33333333 6.33333333 -1 9 C-2.60031344 5.79937313 -1.03173691 3.27728194 0 0 Z " fill="#12567F" transform="translate(216,269)"/>
<path d="M0 0 C0.99 0 1.98 0 3 0 C2.67 1.65 2.34 3.3 2 5 C1.01 5 0.02 5 -1 5 C-1.33 4.01 -1.66 3.02 -2 2 C-1.34 1.34 -0.68 0.68 0 0 Z " fill="#2B698E" transform="translate(396,228)"/>
<path d="M0 0 C0.33 0.99 0.66 1.98 1 3 C1.99 3 2.98 3 4 3 C3.67 4.65 3.34 6.3 3 8 C0.9375 6.25 0.9375 6.25 -1 4 C-0.75 1.75 -0.75 1.75 0 0 Z " fill="#407A9D" transform="translate(214,153)"/>
<path d="M0 0 C0.66 0 1.32 0 2 0 C2.1875 2.375 2.1875 2.375 2 5 C1.01 5.66 0.02 6.32 -1 7 C-1.04254356 5.00045254 -1.04080783 2.99958364 -1 1 C-0.67 0.67 -0.34 0.34 0 0 Z " fill="#3F7A9B" transform="translate(331,293)"/>
<path d="M0 0 C0.66 0.33 1.32 0.66 2 1 C2 1.66 2 2.32 2 3 C2.66 3.33 3.32 3.66 4 4 C3.01 4.66 2.02 5.32 1 6 C1 5.34 1 4.68 1 4 C0.01 4 -0.98 4 -2 4 C-1.34 2.68 -0.68 1.36 0 0 Z " fill="#377B9E" transform="translate(340,283)"/>
<path d="M0 0 C0.66 0.33 1.32 0.66 2 1 C-1.44615385 5.8 -1.44615385 5.8 -4.25 6.8125 C-5.11625 6.9053125 -5.11625 6.9053125 -6 7 C-5.67 6.34 -5.34 5.68 -5 5 C-4.34 5 -3.68 5 -3 5 C-3 3.68 -3 2.36 -3 1 C-2.01 0.67 -1.02 0.34 0 0 Z " fill="#0E557F" transform="translate(225,260)"/>
<path d="M0 0 C0.66 0.33 1.32 0.66 2 1 C2 1.99 2 2.98 2 4 C2.66 4.33 3.32 4.66 4 5 C3.01 5.66 2.02 6.32 1 7 C-1 4 -1 4 -0.625 1.8125 C-0.41875 1.214375 -0.2125 0.61625 0 0 Z " fill="#3A799C" transform="translate(364,258)"/>
<path d="M0 0 C0.99 0 1.98 0 3 0 C2.6875 1.875 2.6875 1.875 2 4 C1.01 4.66 0.02 5.32 -1 6 C-1.042721 4.33388095 -1.04063832 2.66617115 -1 1 C-0.67 0.67 -0.34 0.34 0 0 Z " fill="#4B7C9A" transform="translate(241,255)"/>
<path d="M0 0 C1.32 0 2.64 0 4 0 C4 0.99 4 1.98 4 3 C5.32 3.33 6.64 3.66 8 4 C7.34 4 6.68 4 6 4 C5.67 4.66 5.34 5.32 5 6 C3.35 4.02 1.7 2.04 0 0 Z " fill="#6590A9" transform="translate(306,249)"/>
<path d="M0 0 C1.65 0 3.3 0 5 0 C5.33 1.98 5.66 3.96 6 6 C3.97945196 4.35830472 1.97956942 2.69088222 0 1 C0 0.67 0 0.34 0 0 Z " fill="#6591AA" transform="translate(287,230)"/>
<path d="M0 0 C2.4375 0.8125 2.4375 0.8125 5 2 C5.33 2.99 5.66 3.98 6 5 C5.34 5 4.68 5 4 5 C3.67 4.34 3.34 3.68 3 3 C1.02 3.33 -0.96 3.66 -3 4 C-2.01 2.68 -1.02 1.36 0 0 Z " fill="#0E5882" transform="translate(389,162)"/>
</svg>
